<?xml version="1.0" encoding="UTF-8" standalone="no"?>
<!-- Generator: Adobe Illustrator 18.0.0, SVG Export Plug-In . SVG Version: 6.00 Build 0)  -->

<svg
   version="1.1"
   id="Layer_1"
   x="0px"
   y="0px"
   viewBox="0 0 50.000004 77.600159"
   enable-background="new 0 0 365 560"
   xml:space="preserve"
   sodipodi:docname="marker_home.svg"
   inkscape:version="1.1.2 (0a00cf5339, 2022-02-04)"
   width="50.000004"
   height="77.600159"
   xmlns:inkscape="http://www.inkscape.org/namespaces/inkscape"
   xmlns:sodipodi="http://sodipodi.sourceforge.net/DTD/sodipodi-0.dtd"
   xmlns="http://www.w3.org/2000/svg"
   xmlns:svg="http://www.w3.org/2000/svg"><defs
   id="defs9" /><sodipodi:namedview
   id="namedview7"
   pagecolor="#ffffff"
   bordercolor="#666666"
   borderopacity="1.0"
   inkscape:pageshadow="2"
   inkscape:pageopacity="0.0"
   inkscape:pagecheckerboard="0"
   showgrid="false"
   inkscape:zoom="8.8"
   inkscape:cx="39.659091"
   inkscape:cy="27.727273"
   inkscape:window-width="1920"
   inkscape:window-height="1019"
   inkscape:window-x="0"
   inkscape:window-y="30"
   inkscape:window-maximized="1"
   inkscape:current-layer="Layer_1"
   fit-margin-top="0"
   fit-margin-left="0"
   fit-margin-right="0"
   fit-margin-bottom="0" />
<g
   id="g4"
   transform="translate(-6.6979249,-6.8979188)">
	
</g><path
   id="path1081"
   style="fill:#000000;stroke:none;stroke-width:0.227601;fill-opacity:1"
   d="M 45.676522,25.390183 A 20.676522,21.700484 0 0 1 24.999999,47.090665 20.676522,21.700484 0 0 1 4.3234771,25.390183 20.676522,21.700484 0 0 1 24.999999,3.6896992 20.676522,21.700484 0 0 1 45.676522,25.390183 Z M 25,77.297913 c 0,0.01419 0.02838,0.04256 0.02838,0.04256 0,0 24.857824,-38.166406 24.857824,-50.708824 0,-18.4589188 -12.599171,-26.48947169 -24.8862,-26.51784819 C 12.712971,0.14218081 0.1138005,8.1727342 0.1138005,26.631653 c 0,12.542418 24.8720115,50.708824 24.8720115,50.708824 z" />
<path
   d="m 13.89619,38.245376 c 0,0.2788 0.226016,0.504816 0.504816,0.504816 h 7.570224 v -6.057794 h 6.057794 v 6.057794 h 7.570224 c 0.2788,0 0.504816,-0.226016 0.504816,-0.504816 V 26.636421 H 13.89619 c 0,0 0,11.608955 0,11.608955 z M 37.986019,23.767247 36.104266,22.113671 v -7.590214 c 0,-1.1152 -0.904045,-2.019265 -2.019265,-2.019265 -1.11522,0 -2.019265,0.904065 -2.019265,2.019265 v 4.038529 l -6.698507,-5.87606 c -0.19082,-0.202532 -0.509541,-0.212467 -0.712598,-0.02221 l -0.02221,0.02221 -12.618588,11.031243 c -0.190618,0.203462 -0.180199,0.522929 0.02326,0.713548 0.0918,0.086 0.212407,0.134625 0.338187,0.136361 l 3.540175,0.05048 h 21.700634 c 0.2788,9.29e-4 0.505564,-0.224341 0.506493,-0.50314 4.24e-4,-0.12885 -0.04842,-0.252973 -0.136563,-0.34697 z"
   id="path2-3"
   style="stroke-width:2.01926;fill:#000000;fill-opacity:1" /></svg>
