<?xml version="1.0" encoding="UTF-8" standalone="no"?>
<svg
   version="1.1"
   id="Layer_1"
   x="0px"
   y="0px"
   width="125.49998"
   height="120.03493"
   viewBox="0 0 125.49998 120.03493"
   enable-background="new 0 0 122.88 100.094"
   xml:space="preserve"
   sodipodi:docname="settings.svg"
   inkscape:version="1.1.2 (0a00cf5339, 2022-02-04)"
   xmlns:inkscape="http://www.inkscape.org/namespaces/inkscape"
   xmlns:sodipodi="http://sodipodi.sourceforge.net/DTD/sodipodi-0.dtd"
   xmlns="http://www.w3.org/2000/svg"
   xmlns:svg="http://www.w3.org/2000/svg"><defs
     id="defs9" /><sodipodi:namedview
     id="namedview7"
     pagecolor="#ffffff"
     bordercolor="#666666"
     borderopacity="1.0"
     inkscape:pageshadow="2"
     inkscape:pageopacity="0.0"
     inkscape:pagecheckerboard="0"
     showgrid="false"
     fit-margin-top="0"
     fit-margin-left="0"
     fit-margin-right="0"
     fit-margin-bottom="0"
     inkscape:zoom="6.1542149"
     inkscape:cx="64.589879"
     inkscape:cy="52.809335"
     inkscape:window-width="1920"
     inkscape:window-height="1019"
     inkscape:window-x="0"
     inkscape:window-y="30"
     inkscape:window-maximized="1"
     inkscape:current-layer="Layer_1" /><g
     id="g4"
     transform="rotate(45,63.399998,64.005631)"><path
       d="m 97.124,19.813 c -0.268,-0.268 -0.481,-0.429 -0.749,-0.536 -0.214,-0.107 -0.482,-0.161 -0.804,-0.161 -0.322,0 -0.589,0.054 -0.803,0.161 -0.214,0.107 -0.482,0.268 -0.696,0.482 l -0.054,0.054 -6.051,6.05 c -1.178,1.178 -3.052,1.339 -4.391,0.375 -0.695,-0.428 -1.393,-0.857 -2.195,-1.285 -0.856,-0.428 -1.66,-0.857 -2.409,-1.231 -0.804,-0.375 -1.66,-0.75 -2.517,-1.071 -0.75,-0.268 -1.606,-0.589 -2.624,-0.911 -1.445,-0.482 -2.356,-1.821 -2.356,-3.266 V 9.21 c 0,-0.321 -0.054,-0.643 -0.16,-0.856 C 71.208,8.14 71.047,7.872 70.833,7.711 70.619,7.497 70.405,7.336 70.19,7.229 69.976,7.122 69.655,7.069 69.334,7.069 H 57.661 c -0.322,0 -0.589,0.053 -0.803,0.107 -0.214,0.107 -0.482,0.268 -0.75,0.536 C 55.894,7.926 55.733,8.14 55.68,8.355 55.573,8.569 55.519,8.89 55.519,9.211 v 8.514 c 0,1.714 -1.232,3.106 -2.838,3.427 -0.911,0.214 -1.767,0.428 -2.517,0.643 -0.857,0.268 -1.66,0.535 -2.517,0.857 -0.803,0.321 -1.66,0.642 -2.463,1.071 -0.856,0.375 -1.606,0.803 -2.356,1.178 -1.392,0.749 -2.999,0.481 -4.069,-0.589 l -6.694,-6.64 c -0.053,-0.054 -0.053,-0.054 -0.053,-0.107 -0.215,-0.214 -0.429,-0.375 -0.643,-0.482 -0.215,-0.107 -0.429,-0.107 -0.75,-0.107 -0.321,0 -0.589,0.054 -0.803,0.161 -0.268,0.107 -0.482,0.268 -0.75,0.536 l -8.139,8.192 c -0.268,0.268 -0.428,0.482 -0.536,0.75 -0.107,0.214 -0.16,0.482 -0.16,0.803 0,0.322 0.053,0.589 0.16,0.804 0.107,0.214 0.268,0.482 0.482,0.696 v 0.054 l 6.051,6.051 c 1.178,1.178 1.338,3.052 0.375,4.391 -0.428,0.696 -0.857,1.392 -1.285,2.195 -0.428,0.857 -0.857,1.66 -1.231,2.41 -0.375,0.803 -0.75,1.66 -1.071,2.517 -0.268,0.75 -0.589,1.606 -0.911,2.624 -0.482,1.446 -1.821,2.356 -3.266,2.356 h -9.264 c -0.321,0 -0.643,0.053 -0.856,0.16 -0.215,0.107 -0.429,0.268 -0.643,0.429 -0.215,0.214 -0.375,0.429 -0.429,0.643 -0.107,0.214 -0.161,0.535 -0.161,0.856 v 0.945 c -2.356,0.719 -4.637,1.771 -6.8,3.173 v -4.225 c 0,-1.231 0.214,-2.356 0.643,-3.481 0.428,-1.07 1.124,-2.034 1.981,-2.944 0.856,-0.857 1.874,-1.553 2.945,-1.981 1.071,-0.428 2.249,-0.643 3.48,-0.643 h 6.854 c 0.054,-0.161 0.161,-0.375 0.214,-0.535 0.375,-0.964 0.804,-1.928 1.232,-2.892 0.482,-1.018 0.91,-1.981 1.392,-2.838 l 0.161,-0.322 -4.123,-4.176 c -0.857,-0.857 -1.553,-1.82 -1.981,-2.945 -0.482,-1.125 -0.696,-2.303 -0.696,-3.481 0,-1.231 0.214,-2.355 0.696,-3.48 0.481,-1.124 1.124,-2.088 1.981,-2.945 L 24.3,12.641 v -0.053 c 0.856,-0.857 1.82,-1.5 2.891,-1.981 1.125,-0.482 2.249,-0.696 3.481,-0.696 1.231,0 2.409,0.268 3.48,0.696 1.071,0.481 2.034,1.124 2.838,2.034 l 4.873,4.819 c 0.161,-0.054 0.321,-0.16 0.428,-0.214 0.91,-0.429 1.874,-0.803 2.892,-1.231 0.964,-0.375 1.981,-0.696 2.999,-1.018 0.161,-0.054 0.268,-0.107 0.428,-0.107 V 9.049 c 0,-1.231 0.215,-2.41 0.696,-3.48 0.429,-1.071 1.125,-2.035 1.981,-2.891 l 0.054,-0.054 c 0.856,-0.856 1.82,-1.5 2.892,-1.928 C 55.305,0.268 56.483,0 57.661,0 h 11.673 c 1.231,0 2.356,0.214 3.48,0.643 1.125,0.429 2.089,1.125 2.945,1.981 0.856,0.856 1.553,1.874 1.981,2.945 0.428,1.071 0.643,2.249 0.643,3.48 v 6.854 c 0.16,0.054 0.374,0.161 0.535,0.214 0.964,0.375 1.928,0.804 2.892,1.232 1.017,0.482 1.981,0.91 2.838,1.392 l 0.321,0.161 4.176,-4.123 c 0.857,-0.857 1.821,-1.553 2.945,-1.981 1.125,-0.482 2.303,-0.696 3.48,-0.696 1.231,0 2.356,0.214 3.48,0.696 l 0.001,0.106 c 1.124,0.482 2.088,1.125 2.944,1.981 l 8.192,8.139 h 0.054 c 0.857,0.857 1.499,1.821 1.981,2.892 0.481,1.125 0.696,2.249 0.696,3.48 0,1.231 -0.269,2.41 -0.696,3.48 -0.482,1.071 -1.124,2.035 -2.035,2.838 l -4.818,4.873 c 0.053,0.161 0.16,0.321 0.214,0.482 0.428,0.911 0.803,1.875 1.178,2.785 0,0.054 0.054,0.107 0.054,0.161 0.375,0.91 0.696,1.927 1.018,2.999 l 0.106,0.375 h 5.891 c 1.231,0 2.409,0.214 3.48,0.696 1.071,0.428 2.035,1.125 2.892,1.981 l 0.054,0.054 c 0.856,0.857 1.499,1.82 1.928,2.892 0.428,1.071 0.695,2.249 0.695,3.427 v 1.749 h -1.669 c -2.463,-2.256 -5.264,-4.08 -8.325,-5.35 -0.237,-0.11 -0.479,-0.213 -0.728,-0.308 -4.021,-1.531 -7.539,-2.177 -10.685,-2.185 -0.111,-0.409 -0.222,-0.826 -0.333,-1.243 -0.268,-0.803 -0.535,-1.66 -0.91,-2.57 0,-0.053 -0.054,-0.107 -0.054,-0.161 -0.321,-0.856 -0.643,-1.606 -0.964,-2.356 -0.375,-0.803 -0.75,-1.606 -1.178,-2.356 -0.75,-1.393 -0.482,-2.999 0.589,-4.07 l 6.64,-6.693 c 0,-0.054 0.054,-0.054 0.106,-0.054 0.215,-0.214 0.375,-0.428 0.482,-0.643 0.107,-0.214 0.107,-0.428 0.107,-0.75 0,-0.322 -0.054,-0.589 -0.161,-0.803 -0.106,-0.268 -0.268,-0.482 -0.535,-0.75 l -8.192,-8.139 z m -69.79,75.893 c -4.405,3.344 -9.35,5.998 -16.611,3.235 C 6.015,97.156 2.156,93.027 0,87.825 18.757,96.326 25.473,71.927 3.263,71.192 c 6.779,-8.162 16.777,-8.096 24.855,-2.11 3.819,2.824 5.967,4.242 8.166,4.861 1.203,0.356 2.411,0.424 3.938,0.427 5.16,0.018 32.208,-0.571 37.683,-0.686 10.309,-0.202 15.521,-16.053 30.184,-10.466 4.708,1.785 8.566,5.914 10.723,11.116 -18.757,-8.501 -25.473,15.898 -3.263,16.633 -6.779,8.162 -16.776,8.097 -24.854,2.11 -3.54,-2.632 -5.775,-5.727 -12.759,-5.531 -4.844,0.206 -31.836,0.521 -36.692,0.847 -1.93,0.116 -3.211,0.307 -4.43,0.782 -2.204,0.841 -4.201,2.555 -9.412,6.527 z M 62.052,34.591 c 1.768,0 3.534,0.161 5.248,0.535 1.659,0.322 3.319,0.857 4.979,1.553 1.553,0.696 3.052,1.5 4.444,2.41 1.392,0.91 2.677,1.981 3.855,3.159 1.178,1.178 2.249,2.463 3.159,3.909 0.964,1.392 1.767,2.891 2.409,4.444 0.054,0.106 0.054,0.214 0.107,0.268 0.554,1.338 0.988,2.716 1.303,4.064 -1.53,1.017 -2.992,2.128 -4.425,3.253 H 81.266 C 81.211,57.781 81.143,57.376 81.059,56.973 80.791,55.741 80.47,54.617 80.041,53.545 79.987,53.492 79.987,53.439 79.935,53.331 79.399,52.1 78.81,50.976 78.115,49.958 77.419,48.94 76.669,47.977 75.812,47.12 74.955,46.264 73.991,45.46 72.974,44.818 71.956,44.122 70.831,43.533 69.6,42.998 c -1.124,-0.482 -2.356,-0.857 -3.641,-1.125 -1.231,-0.268 -2.57,-0.375 -3.909,-0.375 -1.339,0 -2.624,0.107 -3.909,0.375 -1.231,0.268 -2.355,0.589 -3.427,1.018 -0.054,0.054 -0.107,0.054 -0.214,0.107 -1.232,0.535 -2.356,1.124 -3.374,1.82 -1.018,0.696 -1.981,1.446 -2.838,2.302 -0.857,0.857 -1.66,1.821 -2.303,2.838 -0.696,1.018 -1.285,2.142 -1.82,3.373 -0.482,1.125 -0.857,2.356 -1.125,3.642 -0.086,0.394 -0.155,0.8 -0.209,1.213 h -6.892 c 0.087,-0.878 0.221,-1.748 0.408,-2.605 0.321,-1.66 0.857,-3.32 1.553,-4.979 0.696,-1.553 1.5,-3.053 2.41,-4.444 0.91,-1.393 1.981,-2.678 3.159,-3.909 1.178,-1.178 2.463,-2.249 3.855,-3.159 1.392,-0.964 2.891,-1.767 4.444,-2.41 0.107,-0.053 0.215,-0.053 0.268,-0.107 1.553,-0.643 3.159,-1.125 4.712,-1.446 1.713,-0.321 3.48,-0.535 5.247,-0.535 h 0.057 z"
       id="path2" /></g></svg>
