<?xml version="1.0" encoding="UTF-8" standalone="no"?>
<svg
   version="1.1"
   id="embassy"
   width="11.502868"
   height="12.98"
   viewBox="0 0 11.502868 12.98"
   sodipodi:docname="embassy.svg"
   inkscape:version="1.1.2 (0a00cf5339, 2022-02-04)"
   xmlns:inkscape="http://www.inkscape.org/namespaces/inkscape"
   xmlns:sodipodi="http://sodipodi.sourceforge.net/DTD/sodipodi-0.dtd"
   xmlns="http://www.w3.org/2000/svg"
   xmlns:svg="http://www.w3.org/2000/svg">
  <defs
     id="defs7" />
  <sodipodi:namedview
     id="namedview5"
     pagecolor="#ffffff"
     bordercolor="#666666"
     borderopacity="1.0"
     inkscape:pageshadow="2"
     inkscape:pageopacity="0.0"
     inkscape:pagecheckerboard="0"
     showgrid="false"
     fit-margin-top="0"
     fit-margin-left="0"
     fit-margin-right="0"
     fit-margin-bottom="0"
     inkscape:zoom="41.066667"
     inkscape:cx="5.9902597"
     inkscape:cy="6.5016234"
     inkscape:window-width="1920"
     inkscape:window-height="1019"
     inkscape:window-x="0"
     inkscape:window-y="30"
     inkscape:window-maximized="1"
     inkscape:current-layer="embassy" />
  <path
     d="M 5.15,1 C 3.93,1 2.98,2.38 2.61,2.82 2.5365,2.9102 2.4975,3.0237 2.5,3.14 v 4.4 C 2.4884,7.7827 2.6758,7.9889 2.9185,8.0005 3.028,8.0057 3.1355,7.9699 3.22,7.9 3.6865,7.2736 4.3789,6.8539 5.15,6.73 6.56,6.73 7.1,8 8.57,8 9.5648,7.9024 10.5115,7.5244 11.3,6.91 11.4272,6.8166 11.5016,6.6678 11.5,6.51 V 1.45 C 11.5275,1.2086 11.3541,0.9905 11.1126,0.963 11.0332,0.954 10.9527,0.9668 10.88,1 10.1987,1.5212 9.4094,1.8834 8.57,2.06 7.1,2.08 6.62,1 5.15,1 Z M 1,2 C 0.4477,2 0,1.5523 0,1 0,0.4477 0.4477,0 1,0 1.5523,0 2,0.4477 2,1 2,1.5523 1.5523,2 1,2 Z m 0.5,1 v 9.48 c 0,0.2761 -0.2239,0.5 -0.5,0.5 -0.2761,0 -0.5,-0.2239 -0.5,-0.5 V 3 C 0.5,2.7239 0.7239,2.5 1,2.5 1.2761,2.5 1.5,2.7239 1.5,3 Z"
     id="path2" />
</svg>
