<svg xmlns="http://www.w3.org/2000/svg" xmlns:xlink="http://www.w3.org/1999/xlink" version="1.1" width="256" height="256" viewBox="0 0 256 256" xml:space="preserve">

<defs>
</defs>
<g style="stroke: none; stroke-width: 0; stroke-dasharray: none; stroke-linecap: butt; stroke-linejoin: miter; stroke-miterlimit: 10; fill: none; fill-rule: nonzero; opacity: 1;" transform="translate(1.4065934065934016 1.4065934065934016) scale(2.81 2.81)" >
	<path d="M 68.023 77.578 c -7.494 0 -15.448 -1.598 -23.815 -4.797 c -13.639 -5.807 -27.421 -5.801 -42.182 -0.005 c -0.765 0.297 -1.624 -0.076 -1.923 -0.839 c -0.299 -0.762 0.076 -1.624 0.839 -1.923 c 15.523 -6.094 30.038 -6.09 44.377 0.016 c 15.927 6.087 30.257 6.106 42.54 0.035 c 0.734 -0.363 1.625 -0.062 1.988 0.672 c 0.363 0.735 0.062 1.625 -0.672 1.988 C 82.628 75.96 75.559 77.578 68.023 77.578 z" style="stroke: none; stroke-width: 1; stroke-dasharray: none; stroke-linecap: butt; stroke-linejoin: miter; stroke-miterlimit: 10; fill: rgb(0,0,0); fill-rule: nonzero; opacity: 1;" transform=" matrix(1 0 0 1 0 0) " stroke-linecap="round" />
	<path d="M 89.846 60.847 c -0.363 -0.735 -1.254 -1.035 -1.988 -0.672 c -3.55 1.755 -7.276 2.984 -11.157 3.722 l 12.982 -16.512 c 0.351 -0.446 0.416 -1.054 0.168 -1.565 s -0.767 -0.835 -1.335 -0.835 h -18.5 l -9.098 -9.188 c 0 0 -0.001 -0.001 -0.001 -0.001 l -9.523 -9.617 c -0.278 -0.281 -0.658 -0.439 -1.054 -0.439 H 28.674 l -3.595 -12.251 c -0.185 -0.632 -0.765 -1.066 -1.424 -1.066 h -8.653 c -0.404 0 -0.791 0.165 -1.071 0.457 c -0.28 0.292 -0.428 0.685 -0.411 1.089 l 0.493 11.771 H 8.452 c -0.715 0 -1.328 0.509 -1.458 1.212 l -1.787 9.595 c 0 0.001 0 0.001 0 0.002 l -1.572 8.437 h -2.15 c -0.82 0 -1.484 0.75 -1.484 1.569 c 0 4.994 0 9.07 2.498 12.995 c -0.519 0.191 -1.036 0.371 -1.557 0.575 c -0.763 0.299 -1.138 1.161 -0.839 1.923 c 0.299 0.763 1.158 1.136 1.923 0.839 c 14.761 -5.797 28.543 -5.802 42.182 0.005 c 8.367 3.199 16.321 4.797 23.815 4.797 c 1.727 0 3.427 -0.095 5.105 -0.266 c 0.024 0.001 0.047 0.012 0.07 0.012 c 0.121 0 0.24 -0.018 0.357 -0.047 c 5.485 -0.604 10.699 -2.121 15.618 -4.552 C 89.908 62.472 90.209 61.582 89.846 60.847 z M 16.549 15.389 h 5.995 l 3.037 10.35 h -8.598 L 16.549 15.389 z M 9.685 28.706 H 27.56 c 0.001 0 0.002 0 0.003 0 c 0.001 0 0.002 0 0.003 0 h 22.155 l 6.591 6.656 H 8.445 L 9.685 28.706 z M 7.892 38.329 H 59.25 l 6.591 6.656 H 6.652 L 7.892 38.329 z M 72.455 64.497 c -8.391 0.782 -17.467 -0.662 -27.136 -4.357 c -12.953 -5.516 -26.054 -6.035 -39.909 -1.594 c -2.191 -3.059 -2.417 -6.328 -2.44 -10.595 h 82.493 L 72.455 64.497 z" style="stroke: none; stroke-width: 1; stroke-dasharray: none; stroke-linecap: butt; stroke-linejoin: miter; stroke-miterlimit: 10; fill: rgb(0,0,0); fill-rule: nonzero; opacity: 1;" transform=" matrix(1 0 0 1 0 0) " stroke-linecap="round" />
	<path d="M 69.323 59.765 c -2.781 0 -5.043 -2.262 -5.043 -5.043 c 0 -2.78 2.262 -5.042 5.043 -5.042 c 2.781 0 5.043 2.262 5.043 5.042 C 74.366 57.504 72.104 59.765 69.323 59.765 z M 69.323 52.648 c -1.144 0 -2.076 0.931 -2.076 2.075 c 0 1.144 0.931 2.076 2.076 2.076 c 1.145 0 2.076 -0.931 2.076 -2.076 C 71.399 53.579 70.468 52.648 69.323 52.648 z" style="stroke: none; stroke-width: 1; stroke-dasharray: none; stroke-linecap: butt; stroke-linejoin: miter; stroke-miterlimit: 10; fill: rgb(0,0,0); fill-rule: nonzero; opacity: 1;" transform=" matrix(1 0 0 1 0 0) " stroke-linecap="round" />
</g>
</svg>