<?xml version="1.0" encoding="UTF-8" standalone="no"?>
<!-- Generator: Adobe Illustrator 18.0.0, SVG Export Plug-In . SVG Version: 6.00 Build 0)  -->

<svg
   version="1.1"
   id="Layer_1"
   x="0px"
   y="0px"
   viewBox="0 0 81.233582 26.24642"
   enable-background="new 0 0 365 560"
   xml:space="preserve"
   sodipodi:docname="home_to_target.svg"
   inkscape:version="1.1.2 (0a00cf5339, 2022-02-04)"
   width="81.233582"
   height="26.24642"
   xmlns:inkscape="http://www.inkscape.org/namespaces/inkscape"
   xmlns:sodipodi="http://sodipodi.sourceforge.net/DTD/sodipodi-0.dtd"
   xmlns="http://www.w3.org/2000/svg"
   xmlns:svg="http://www.w3.org/2000/svg"><defs
   id="defs9"><marker
     style="overflow:visible"
     id="TriangleOutM"
     refX="0.0"
     refY="0.0"
     orient="auto"
     inkscape:stockid="TriangleOutM"
     inkscape:isstock="true"><path
       transform="scale(0.4)"
       style="fill-rule:evenodd;fill:context-stroke;stroke:context-stroke;stroke-width:1.0pt"
       d="M 5.77,0.0 L -2.88,5.0 L -2.88,-5.0 L 5.77,0.0 z "
       id="path1091" /></marker><marker
     style="overflow:visible"
     id="Tail"
     refX="0.0"
     refY="0.0"
     orient="auto"
     inkscape:stockid="Tail"
     inkscape:isstock="true"><g
       transform="scale(-1.2)"
       id="g994"><path
         style="fill:none;fill-rule:evenodd;stroke:context-stroke;stroke-width:0.8;stroke-linecap:round"
         d="M -3.8048674,-3.9585227 L 0.54352094,0"
         id="path982" /><path
         style="fill:none;fill-rule:evenodd;stroke:context-stroke;stroke-width:0.8;stroke-linecap:round"
         d="M -1.2866832,-3.9585227 L 3.0617053,0"
         id="path984" /><path
         style="fill:none;fill-rule:evenodd;stroke:context-stroke;stroke-width:0.8;stroke-linecap:round"
         d="M 1.3053582,-3.9585227 L 5.6537466,0"
         id="path986" /><path
         style="fill:none;fill-rule:evenodd;stroke:context-stroke;stroke-width:0.8;stroke-linecap:round"
         d="M -3.8048674,4.1775838 L 0.54352094,0.21974226"
         id="path988" /><path
         style="fill:none;fill-rule:evenodd;stroke:context-stroke;stroke-width:0.8;stroke-linecap:round"
         d="M -1.2866832,4.1775838 L 3.0617053,0.21974226"
         id="path990" /><path
         style="fill:none;fill-rule:evenodd;stroke:context-stroke;stroke-width:0.8;stroke-linecap:round"
         d="M 1.3053582,4.1775838 L 5.6537466,0.21974226"
         id="path992" /></g></marker><marker
     style="overflow:visible;"
     id="marker1715"
     refX="0.0"
     refY="0.0"
     orient="auto"
     inkscape:stockid="Arrow1Lend"
     inkscape:isstock="true"><path
       transform="scale(0.8) rotate(180) translate(12.5,0)"
       style="fill-rule:evenodd;fill:context-stroke;stroke:context-stroke;stroke-width:1.0pt;"
       d="M 0.0,0.0 L 5.0,-5.0 L -12.5,0.0 L 5.0,5.0 L 0.0,0.0 z "
       id="path1713" /></marker><marker
     style="overflow:visible;"
     id="Arrow2Send"
     refX="0.0"
     refY="0.0"
     orient="auto"
     inkscape:stockid="Arrow2Send"
     inkscape:isstock="true"><path
       transform="scale(0.3) rotate(180) translate(-2.3,0)"
       d="M 8.7185878,4.0337352 L -2.2072895,0.016013256 L 8.7185884,-4.0017078 C 6.9730900,-1.6296469 6.9831476,1.6157441 8.7185878,4.0337352 z "
       style="stroke:context-stroke;fill-rule:evenodd;fill:context-stroke;stroke-width:0.62500000;stroke-linejoin:round;"
       id="path979" /></marker><marker
     style="overflow:visible"
     id="Arrow1Mend"
     refX="0"
     refY="0"
     orient="auto"
     inkscape:stockid="Arrow1Mend"
     inkscape:isstock="true"><path
       transform="matrix(-0.4,0,0,-0.4,-4,0)"
       style="fill:context-stroke;fill-rule:evenodd;stroke:context-stroke;stroke-width:1pt"
       d="M 0,0 5,-5 -12.5,0 5,5 Z"
       id="path955" /></marker><marker
     style="overflow:visible"
     id="Arrow1Lend"
     refX="0"
     refY="0"
     orient="auto"
     inkscape:stockid="Arrow1Lend"
     inkscape:isstock="true"><path
       transform="matrix(-0.8,0,0,-0.8,-10,0)"
       style="fill:context-stroke;fill-rule:evenodd;stroke:context-stroke;stroke-width:1pt"
       d="M 0,0 5,-5 -12.5,0 5,5 Z"
       id="path949" /></marker></defs><sodipodi:namedview
   id="namedview7"
   pagecolor="#ffffff"
   bordercolor="#666666"
   borderopacity="1.0"
   inkscape:pageshadow="2"
   inkscape:pageopacity="0.0"
   inkscape:pagecheckerboard="0"
   showgrid="false"
   inkscape:zoom="8.8"
   inkscape:cx="27.727273"
   inkscape:cy="15.340909"
   inkscape:window-width="1920"
   inkscape:window-height="1019"
   inkscape:window-x="0"
   inkscape:window-y="30"
   inkscape:window-maximized="1"
   inkscape:current-layer="Layer_1"
   fit-margin-top="0"
   fit-margin-left="0"
   fit-margin-right="0"
   fit-margin-bottom="0" />
<g
   id="g4"
   transform="translate(-18.575339,-19.294726)">
	
</g>
<path
   d="m 2.0187756,25.741394 c 0,0.2788 0.226016,0.504816 0.504816,0.504816 h 7.5702244 v -6.057794 h 6.057794 v 6.057794 h 7.570224 c 0.2788,0 0.504816,-0.226016 0.504816,-0.504816 V 14.132439 H 2.0187756 c 0,0 0,11.608955 0,11.608955 z M 26.108605,11.263265 24.226852,9.609689 V 2.019475 c 0,-1.1152 -0.904045,-2.019265 -2.019265,-2.019265 -1.11522,0 -2.019265,0.904065 -2.019265,2.019265 v 4.038529 l -6.698507,-5.87606 c -0.19082,-0.202532 -0.509541,-0.212467 -0.712598,-0.02221 l -0.02221,0.02221 -12.61858836,11.031243 c -0.190618,0.203462 -0.180199,0.522929 0.02326,0.713548 0.0918,0.086 0.212407,0.134625 0.338187,0.136361 l 3.54017496,0.05048 H 25.738675 c 0.2788,9.29e-4 0.505564,-0.224341 0.506493,-0.50314 4.24e-4,-0.12885 -0.04842,-0.252973 -0.136563,-0.34697 z"
   id="path2-3"
   style="fill:#000000;fill-opacity:1;stroke-width:2.01926" /><path
   d="m 67.575215,2.022067 c -2.622943,0 -4.665399,2.790451 -5.460882,3.680161 -0.158023,0.18239 -0.241871,0.411893 -0.236495,0.647061 v 8.897091 c -0.02494,0.490756 0.377962,0.907706 0.899756,0.931162 0.23542,0.01051 0.46654,-0.06188 0.648211,-0.203218 1.002953,-1.266622 2.491582,-2.115283 4.14941,-2.365818 3.031433,0 4.192413,2.568026 7.352843,2.568026 2.13877,-0.197356 4.17413,-0.961695 5.86937,-2.204054 0.27348,-0.188861 0.43343,-0.489745 0.42999,-0.808827 V 2.931996 c 0.0591,-0.488127 -0.31367,-0.929138 -0.83289,-0.984747 -0.1707,-0.0182 -0.34378,0.0077 -0.50008,0.07482 -1.46476,1.0539 -3.16172,1.786292 -4.96639,2.143389 -3.16043,0.04044 -4.19241,-2.143389 -7.352843,-2.143389 z m -8.922308,2.022066 c -1.187419,0 -2.149954,-0.905278 -2.149954,-2.022066 C 56.502953,0.905278 57.465488,0 58.652907,0 c 1.187419,0 2.149955,0.905279 2.149955,2.022068 0,1.116787 -0.962536,2.022065 -2.149955,2.022065 z m 1.074977,2.022066 v 19.169188 c 0,0.558294 -0.481375,1.011033 -1.074977,1.011033 -0.593603,0 -1.074978,-0.452739 -1.074978,-1.011033 V 6.066199 c 0,-0.558294 0.481375,-1.011034 1.074978,-1.011034 0.593602,0 1.074977,0.45274 1.074977,1.011034 z"
   id="path2"
   style="fill:#000000;fill-opacity:1;stroke-width:2.08504" /><path
   style="fill:none;stroke:#000000;stroke-width:1.67666;stroke-linecap:butt;stroke-linejoin:miter;stroke-miterlimit:4;stroke-dasharray:none;stroke-opacity:1;marker-end:url(#TriangleOutM)"
   d="m 31.745476,13.19967 6.777726,-0.0333 9.274732,-0.04555"
   id="path944"
   sodipodi:nodetypes="ccc" /></svg>
