<?xml version="1.0" encoding="UTF-8" standalone="no"?>
<!-- Created with Inkscape (http://www.inkscape.org/) -->

<svg
   version="1.1"
   id="svg2"
   width="405.40039"
   height="405.40039"
   viewBox="0 0 405.40039 405.40039"
   sodipodi:docname="logo_with_color.svg"
   inkscape:version="1.1.2 (0a00cf5339, 2022-02-04)"
   inkscape:export-filename="/home/tep/Projekte/trans-europe-planner/favicon.ico"
   inkscape:export-xdpi="96"
   inkscape:export-ydpi="96"
   xmlns:inkscape="http://www.inkscape.org/namespaces/inkscape"
   xmlns:sodipodi="http://sodipodi.sourceforge.net/DTD/sodipodi-0.dtd"
   xmlns="http://www.w3.org/2000/svg"
   xmlns:svg="http://www.w3.org/2000/svg">
  <defs
     id="defs6" />
  <sodipodi:namedview
     id="namedview4"
     pagecolor="#ffffff"
     bordercolor="#666666"
     borderopacity="1.0"
     inkscape:pageshadow="2"
     inkscape:pageopacity="0.0"
     inkscape:pagecheckerboard="0"
     showgrid="false"
     inkscape:zoom="0.93581163"
     inkscape:cx="39.537872"
     inkscape:cy="21.371822"
     inkscape:window-width="1920"
     inkscape:window-height="1019"
     inkscape:window-x="0"
     inkscape:window-y="30"
     inkscape:window-maximized="1"
     inkscape:current-layer="g8"
     fit-margin-top="0"
     fit-margin-left="0"
     fit-margin-right="0"
     fit-margin-bottom="0" />
  <g
     inkscape:groupmode="layer"
     inkscape:label="Image"
     id="g8"
     transform="translate(-32.638672,-27.720703)">
    <path
       style="color:#000000;fill:#286099;fill-opacity:1;-inkscape-stroke:none"
       d="m 235.33984,27.720703 c -111.85921,-4e-6 -202.701168,90.841957 -202.701168,202.701167 -6e-6,111.85922 90.841958,202.69923 202.701168,202.69922 111.85922,0 202.69923,-90.84 202.69922,-202.69922 0,-111.85921 -90.84001,-202.701167 -202.69922,-202.701167 z m 0,15 c 103.75262,0 187.69922,83.948557 187.69922,187.701167 10e-6,103.75263 -83.9466,187.69922 -187.69922,187.69922 -103.75262,1e-5 -187.701173,-83.94659 -187.701168,-187.69922 0,-103.75261 83.948548,-187.701171 187.701168,-187.701167 z"
       id="path947"
       inkscape:export-filename="/home/tep/Projekte/trans-europe-planner/favicon.ico"
       inkscape:export-xdpi="96"
       inkscape:export-ydpi="96" />
    <path
       style="fill:none;stroke:#286099;stroke-width:10;stroke-linecap:butt;stroke-linejoin:miter;stroke-miterlimit:4;stroke-dasharray:none;stroke-opacity:1"
       d="m 95.634411,370.22046 6.381729,-28.26704 m 12.8686,-56.99974 7.87292,-34.87206 m 13.35889,-59.17142 8.22599,-36.43591 m 12.65461,-56.051893 10.94892,-48.496785"
       id="path2021"
       sodipodi:nodetypes="cccccccc"
       inkscape:export-filename="/home/tep/Projekte/trans-europe-planner/favicon.ico"
       inkscape:export-xdpi="96"
       inkscape:export-ydpi="96" />
    <path
       style="fill:none;stroke:#286099;stroke-width:10;stroke-linecap:butt;stroke-linejoin:miter;stroke-miterlimit:4;stroke-dasharray:none;stroke-opacity:1"
       d="M 372.66103,366.05323 367.3257,342.4211 m -12.92316,-57.24142 -7.8082,-34.58539 m -13.62521,-60.35105 -7.47228,-33.09747 M 311.89693,96.906777 300.34937,45.758385"
       id="path2021-3"
       sodipodi:nodetypes="cccccccc"
       inkscape:export-filename="/home/tep/Projekte/trans-europe-planner/favicon.ico"
       inkscape:export-xdpi="96"
       inkscape:export-ydpi="96" />
    <path
       id="rect2543"
       style="opacity:1;stroke-width:4.16341;fill:#286099;fill-opacity:1"
       d="m 126.03906,188.50781 c -17.66776,0 -31.890622,14.22287 -31.890622,31.89063 0,17.66776 14.222862,31.89258 31.890622,31.89258 h 216.2168 c 17.66776,0 31.89258,-14.22482 31.89258,-31.89258 0,-17.66776 -14.22482,-31.89063 -31.89258,-31.89063 z m 34.21485,9.89063 c 1.99917,-0.005 4.40422,0.0644 7.30859,0.19531 l 10.03906,0.45313 -0.18164,2.59765 c -0.15611,2.23255 -0.56021,2.7533 -2.86914,3.68945 -1.47804,0.59929 -5.86901,1.22548 -9.75781,1.39258 -3.88879,0.16708 -7.24301,0.45212 -7.45313,0.63477 -0.21012,0.1827 -0.73047,3.16907 -1.15625,6.63476 l -0.77343,6.30079 2.90429,-0.16407 c 9.66228,-0.54513 11.70961,-0.39405 13.00391,0.95313 3.03093,3.15451 -0.10213,6.36669 -7.36328,7.55078 -2.68971,0.43863 -5.8103,0.7385 -6.9336,0.66601 -1.77169,-0.11546 -2.06215,0.16363 -2.19726,2.09571 -0.0857,1.22499 -0.0732,2.23014 0.0293,2.23242 0.10253,0.002 2.05777,-0.36088 4.3457,-0.80664 2.28793,-0.44576 6.41534,-0.65662 9.17187,-0.46875 4.02956,0.27335 5.28423,0.65245 6.39453,1.92969 3.41388,3.92722 0.93788,5.80684 -9.5,7.21093 -9.58517,1.28939 -14.74244,1.20025 -16.41601,-0.28125 -1.97053,-1.74437 -2.72245,-4.46935 -2.74414,-9.93554 -0.0315,-7.94902 3.01399,-28.51628 4.51562,-30.49219 1.28181,-1.68666 3.6353,-2.37269 9.63282,-2.38867 z m 63.71679,0.25 c 6.15636,-0.24155 12.9411,3.27171 15.28907,9.13281 2.33461,5.82764 0.62541,11.44146 -4.51172,14.82031 l -2.66797,1.75391 2.67969,3.24023 c 5.86589,7.08881 7.01768,11.50725 3.04687,11.69141 -1.425,0.0662 -3.18015,-1.19722 -7.10352,-5.11328 l -5.20898,-5.20117 -1.01172,3.79882 c -0.94613,3.55308 -1.16736,3.80374 -3.39258,3.86329 -3.58111,0.0959 -3.99688,-1.69522 -3.49218,-15 l 0.43945,-11.59766 -1.94336,-0.11328 c -1.76019,-0.10336 -1.94259,-0.41351 -1.94922,-3.29883 -0.006,-2.68537 0.35254,-3.49894 2.29492,-5.1875 2.06347,-1.79374 4.73291,-2.67927 7.53125,-2.78906 z m 57.71875,2.19336 c 3.77266,-0.10719 7.49147,1.84247 9.70313,5.71289 3.42963,6.00191 0.53806,12.38096 -7.03906,15.52929 l -4.41797,1.83594 -0.42578,6.07031 c -0.26088,3.73073 -0.79105,6.38718 -1.37696,6.89649 -1.4775,1.28441 -3.43743,0.82223 -4.58203,-1.08203 -0.69314,-1.15322 -0.92388,-3.4112 -0.68945,-6.76367 0.33255,-4.7555 0.25834,-5.03752 -1.35547,-5.1504 -4.2323,-0.29594 -4.4486,-4.34571 -0.30664,-5.73242 3.60531,-1.20699 3.32251,-0.90962 4.23437,-4.4707 0.71126,-2.77772 0.65298,-3.00065 -0.7207,-2.74219 -3.92373,0.7382 -4.54667,-2.30165 -1.24219,-6.05859 2.31751,-2.63477 5.28446,-3.96156 8.21875,-4.04492 z m 36.6543,1.75781 c 1.12663,-0.0499 2.51634,0.33987 3.14453,1.0625 1.31163,1.50888 0.69023,5.47365 -1.07422,6.85937 -1.38442,1.08726 -2.50891,1.11831 -9.28125,0.25782 -8.65449,-1.09963 -8.16972,-1.3445 -9.41992,4.76953 l -0.75391,3.6875 5.25782,0.36719 c 6.04965,0.42302 8.82342,1.64856 9.25781,4.08984 0.46957,2.63904 -0.36397,3.14073 -4.72266,2.83594 -2.21203,-0.15468 -5.56457,-0.15976 -7.44922,-0.01 -3.64965,0.28909 -4.3949,1.46267 -2.96093,4.66016 0.58881,1.3129 1.50857,1.54834 7.74414,1.98437 7.53572,0.52695 9.89802,1.39908 9.74414,3.59961 -0.13944,1.99394 -1.46215,2.59404 -7.02149,3.17969 -5.70358,0.60086 -10.80464,0.30173 -12.97851,-0.75977 -2.59236,-1.2658 -5.03606,-5.40969 -5.32227,-9.02343 -0.29167,-3.68236 0.77516,-10.6351 2.40235,-15.66016 0.85674,-2.64563 0.8321,-3.35267 -0.16407,-4.62109 -1.73127,-2.2044 -0.48799,-4.43252 3.25,-5.82422 2.43976,-0.90835 4.94499,-1.06315 10.74805,-0.66992 4.22502,0.28643 7.79102,0.19739 8.07617,-0.19922 0.26475,-0.3682 0.84746,-0.55603 1.52344,-0.58594 z m -128.2168,2.12109 c 0.90112,-0.085 1.7804,0.52176 2.56836,1.92969 0.87269,1.55935 0.82845,2.23576 -0.38086,5.75391 -1.75823,5.11522 -3.4463,16.15318 -2.48047,16.2207 0.93603,0.0656 3.26955,-6.01227 5.28125,-13.75977 1.69156,-6.51464 3.21855,-8.78218 5.78321,-8.58398 3.53879,0.27282 4.22689,2.02908 5.37695,13.68945 0.53812,5.45601 1.48125,10.47411 2.28516,12.17188 1.71867,3.6298 1.26425,5.63918 -1.30078,5.75781 -2.61735,0.12101 -4.86614,-2.70495 -6.47071,-8.13477 l -1.28125,-4.33593 -2.03125,4.55859 c -3.62553,8.13053 -9.0317,10.67674 -12.77929,6.01953 -2.1896,-2.72097 -2.46473,-5.71573 -1.35743,-14.80273 1.1881,-9.75 4.08378,-16.22926 6.78711,-16.48438 z m 62.86914,1.23242 c 0.41437,-0.0232 0.83415,-0.0234 1.25977,0 4.54722,0.24972 5.98075,1.63068 8.68555,8.36915 4.52592,11.27547 -0.50098,22.36731 -9.83594,21.70703 -2.07719,-0.14674 -4.32372,-0.85843 -5.59961,-1.77539 -4.62388,-3.323 -6.64347,-8.21844 -6.14453,-14.89453 0.56631,-7.57674 5.41924,-13.05893 11.63476,-13.40626 z m -27.03711,0.54297 c -0.14023,0.008 -0.24603,0.0443 -0.30664,0.11133 -0.12898,0.14296 -0.25416,2.69086 -0.27734,5.66406 -0.0376,4.76194 0.13153,5.418 1.41602,5.50782 0.802,0.0562 2.52845,-0.82829 3.83593,-1.96485 2.6548,-2.30777 2.71871,-4.40881 0.21289,-6.90039 -1.19799,-1.19115 -3.89921,-2.47486 -4.88086,-2.41797 z m 57.21485,1.79688 c -0.35833,-0.0251 -0.75523,1.44882 -0.88281,3.27344 -0.18546,2.65237 -0.002,3.24584 0.91796,2.96484 0.63255,-0.19318 1.40783,-1.13967 1.72266,-2.10352 0.55661,-1.70403 -0.43772,-4.04246 -1.75781,-4.13476 z m -29.29102,4.66797 c -1.82808,-0.12784 -4.55302,2.89173 -5.34375,5.92187 -1.0425,3.99505 1.75325,10.239 4.67578,10.44336 0.53446,0.0375 1.68676,-0.55295 2.56055,-1.3125 2.14424,-1.86396 2.40254,-5.87504 0.46875,-7.27929 -1.02544,-0.74462 -1.28548,-1.49696 -0.875,-2.53321 0.91872,-2.31944 0.12176,-5.12779 -1.48633,-5.24023 z"
       inkscape:export-filename="/home/tep/Projekte/trans-europe-planner/favicon.ico"
       inkscape:export-xdpi="96"
       inkscape:export-ydpi="96" />
    <path
       id="rect2543-6"
       style="opacity:1;stroke-width:3.93406;fill:#286099;fill-opacity:1"
       d="m 141.03906,94.849609 c -17.66776,0 -31.89062,14.224821 -31.89062,31.892581 0,17.66775 14.22286,31.89062 31.89062,31.89062 h 186.2168 c 17.66776,0 31.89258,-14.22287 31.89258,-31.89062 0,-17.66776 -14.22482,-31.892581 -31.89258,-31.892581 z m 46.51953,12.835941 c 4.09146,-0.24115 8.3714,2.24071 10.48829,6.75 2.21761,4.72392 2.02208,6.95714 -1.08399,12.39257 -1.43234,2.50651 -2.26533,4.68374 -1.85156,4.8379 0.41374,0.15417 2.40434,1.54562 4.42578,3.09179 6.13087,4.6894 8.03879,9.38778 4.89062,12.04297 -2.01811,1.7021 -3.62218,1.53422 -5.375,-0.56055 -1.38136,-1.6509 -9.89279,-8.2223 -10.68554,-8.25 -0.20469,-0.007 -0.66509,1.41661 -1.02344,3.16407 -0.81809,3.98911 -3.03072,5.33858 -5.68359,3.46484 -1.54501,-1.09123 -1.86869,-2.17957 -2.10938,-7.10742 -0.15631,-3.20036 -0.1596,-8.6863 -0.008,-12.18945 0.15214,-3.50316 0.246,-7.94121 0.20703,-9.86329 -0.0618,-3.04677 0.26625,-3.77627 2.56641,-5.6914 1.56203,-1.30054 3.38243,-1.97242 5.24218,-2.08203 z m 125.05664,1.27734 c 7.63922,0.18885 14.41398,6.01525 10.51368,9.65234 -1.38502,1.29152 -4.27165,1.04274 -5.43946,-0.46875 -1.63214,-2.11251 -6.99854,-1.45007 -9.05078,1.11719 -3.46185,4.33056 -0.34691,7.55556 10.22266,10.58399 4.92387,1.41081 8.62671,5.52514 8.49023,9.43359 -0.085,2.43478 -0.73725,3.56193 -3.60937,6.24023 -2.08342,1.94283 -4.81071,3.58191 -6.72071,4.04102 -3.70856,0.89139 -10.95983,0.68087 -14.1875,-0.41211 -3.08718,-1.04548 -4.44783,-2.43324 -4.37695,-4.46289 0.10006,-2.86577 1.69054,-3.59131 7.4375,-3.39062 5.2153,0.18211 12.25788,-1.4873 11.54492,-2.73633 -0.18517,-0.32425 -2.26261,-1.09111 -4.61718,-1.70508 -2.35461,-0.61394 -5.84012,-2.18412 -7.7461,-3.48828 -10.34859,-7.08108 -6.32669,-23.40795 6.00195,-24.36328 0.51406,-0.0398 1.02783,-0.0536 1.53711,-0.041 z m -148.67382,1.10352 c 2.57662,0.0372 4.58609,0.64605 5.97851,1.82226 3.8146,3.22228 2.09271,7.66575 -3.66211,9.44922 -2.44229,0.75689 -2.57466,0.99657 -2.6914,4.90039 -0.0673,2.25718 0.0991,7.66109 0.36914,12.00781 0.58835,9.47301 -0.23255,11.9023 -4.09766,12.14453 -1.35295,0.0848 -2.82593,-0.32588 -3.27344,-0.9121 -1.5674,-2.05331 -2.32926,-7.7328 -2.2207,-16.54297 0.12011,-9.74915 0.12745,-9.73769 -4.83398,-7.86524 -5.59902,2.11306 -9.07905,0.9132 -8.93946,-3.08398 0.15069,-4.31533 4.34794,-7.41143 13.99219,-10.32031 3.65814,-1.10338 6.80229,-1.63678 9.37891,-1.59961 z m 119.7832,0.26367 c 0.87094,0.008 1.66602,0.30553 2.1543,0.9375 1.12219,1.45243 2.02085,23.11038 1.16406,28.05469 -0.75489,4.35647 -3.42531,7.57557 -6.20508,7.47851 -4.47695,-0.15633 -8.39289,-4.68789 -13.32031,-15.41601 -1.48418,-3.23138 -2.90063,-5.88197 -3.14844,-5.89063 -0.24775,-0.009 -0.5118,5.09491 -0.58594,11.3418 l -0.13476,11.35742 -2.14453,0.17383 c -1.52165,0.12216 -2.3896,-0.32408 -2.98243,-1.53125 -0.45966,-0.93606 -1.25811,-4.42465 -1.77539,-7.75391 -2.26396,-14.5715 0.72265,-24.19536 7.43555,-23.96094 3.70742,0.12947 5.63668,2.46228 10.11719,12.22657 2.06753,4.50584 3.94572,8.19914 4.17187,8.20703 0.22606,0.008 0.36552,-4.74186 0.31055,-10.55469 -0.0758,-8.02792 0.17231,-11.03734 1.0332,-12.52148 0.79767,-1.37512 2.4586,-2.1625 3.91016,-2.14844 z m -52.7168,2.83594 c 4.07068,0.14215 6.64505,3.41975 11.77539,14.99609 5.76011,12.99731 5.99047,17.5182 0.88282,17.33984 -1.52277,-0.0532 -2.24375,-0.82389 -3.35743,-3.59961 l -1.41601,-3.5332 -5.02735,0.98828 c -2.76491,0.54314 -6.51326,0.73457 -8.33007,0.42578 l -3.30469,-0.5625 -0.64453,3.3418 c -1.45882,7.55204 -2.26276,9.26689 -4.3125,9.19531 -1.17609,-0.0411 -2.29939,-0.78261 -2.8711,-1.89453 -2.53732,-4.93488 0.16835,-16.93314 6.4043,-28.39844 3.39657,-6.24475 6.09693,-8.44215 10.20117,-8.29882 z m -43.46484,3.31836 c -0.49928,0.0203 -0.53508,0.38527 -0.22656,1.2539 0.29186,0.82216 0.69575,2.73988 0.89648,4.26172 l 0.36523,2.76758 1.32032,-2.55469 c 0.9757,-1.88697 1.11173,-2.91408 0.51953,-3.93164 -0.44097,-0.75766 -1.43864,-1.52573 -2.2168,-1.70703 -0.27416,-0.0639 -0.49177,-0.0966 -0.6582,-0.0898 z m 42.77539,6.17382 c -0.65751,0.12153 -1.32447,1.32361 -2.43945,3.48047 -2.77076,5.35991 -2.7826,5.46967 -0.51172,4.94531 0.99478,-0.22964 3.15884,-0.3759 4.81054,-0.32421 l 3.00391,0.0937 -1.44141,-3.04102 c -1.74665,-3.68202 -2.5765,-5.31054 -3.42187,-5.1543 z"
       inkscape:export-filename="/home/tep/Projekte/trans-europe-planner/favicon.ico"
       inkscape:export-xdpi="96"
       inkscape:export-ydpi="96" />
    <path
       id="rect2543-7"
       style="opacity:1;stroke-width:4.37243;fill:#286099;fill-opacity:1"
       d="m 111.62891,282.16602 c -17.667756,0 -31.890629,14.22286 -31.890629,31.89062 0,17.66775 14.222873,31.89063 31.890629,31.89063 h 245.03711 c 17.66775,0 31.89062,-14.22288 31.89062,-31.89063 0,-17.66776 -14.22287,-31.89062 -31.89062,-31.89062 z m 36.50195,9.89062 c 0.86932,0.004 1.86379,0.0568 3.08984,0.14258 4.9907,0.34898 5.88731,0.62618 8.78907,2.70898 4.18513,3.00387 7.26379,8.76774 6.96484,13.04297 -0.48304,6.90766 -6.62963,12.33047 -17.08594,15.07617 -0.98185,0.25783 -1.28519,1.12491 -1.50781,4.3086 -0.43888,6.27638 -3.94424,9.06145 -6.24024,4.95898 -1.48694,-2.65688 0.40474,-28.24526 2.2168,-29.98633 0.68356,-0.65679 1.95085,-1.14436 2.81446,-1.08398 2.63587,0.18432 3.53618,2.69372 3.11718,8.68555 l -0.37695,5.375 2.21289,-1.0918 c 3.1745,-1.56545 6.49148,-5.04958 6.625,-6.95898 0.15607,-2.23195 -3.2394,-5.96251 -6.10742,-6.71094 -3.02512,-0.78941 -5.97025,-0.41523 -10.5586,1.34375 -2.8627,1.09729 -3.82057,1.84402 -4.24609,3.3164 -1.02486,3.54627 -1.98879,4.90253 -3.41601,4.80274 -1.74822,-0.12225 -2.57272,-2.60933 -2.2754,-6.86133 0.30143,-4.31063 2.72491,-6.90747 8.74414,-9.36523 3.15867,-1.28974 4.63228,-1.71561 7.24024,-1.70313 z m 58.95312,3.13867 c 4.19368,-0.11163 4.66033,0.91119 9.05469,19.81641 3.9914,17.17168 4.00902,17.30614 2.44531,18.80859 -1.64578,1.5813 -2.83073,1.52063 -4.3496,-0.22656 -1.08661,-1.25 -4.77228,-12.04116 -4.66016,-13.64453 0.0529,-0.75625 -5.05306,-0.48085 -7.01367,0.3789 -0.63912,0.28022 -1.42393,1.50809 -1.74414,2.72852 -0.32015,1.22043 -1.27665,3.1991 -2.12696,4.39648 -1.21703,1.71378 -1.92605,2.10472 -3.33203,1.83594 -2.78729,-0.53289 -3.27011,-2.18526 -1.84961,-6.33594 0.67345,-1.96776 1.23049,-4.56442 1.23828,-5.77148 0.008,-1.2071 0.44655,-2.57313 0.97461,-3.03516 0.52804,-0.46204 2.08407,-3.99762 3.45703,-7.85742 3.06374,-8.61304 4.77186,-11.01029 7.90625,-11.09375 z m 80.71485,0.75781 c 0.55079,0.0303 1.04905,0.49915 1.91406,1.56836 1.12052,1.38505 2.04857,1.64983 7.23828,2.0586 6.34569,0.49979 6.88525,0.85716 5.88672,3.91406 -0.77222,2.36409 -4.92088,3.18041 -9.63867,1.89648 -1.97312,-0.53698 -3.73816,-0.84658 -3.92188,-0.68945 -0.18376,0.15706 -0.66448,3.19813 -1.07031,6.75781 l -0.73828,6.47071 4.48633,0.31445 c 5.72751,0.4005 6.62934,0.84674 6.46484,3.19922 -0.20948,2.99571 -1.69652,3.59455 -6.75195,2.7168 -4.05623,-0.70426 -4.42529,-0.65924 -4.50977,0.54882 -0.0507,0.7235 0.44812,2.08596 1.10742,3.02735 1.03583,1.47905 1.81129,1.75591 5.70508,2.04687 4.861,0.36336 6.23729,1.21141 5.40039,3.32422 -1.30809,3.3024 -9.21147,3.9995 -13.94336,1.23047 -4.55718,-2.66681 -5.16895,-4.79729 -4.35546,-15.13086 1.00786,-12.80306 3.12304,-21.4614 5.58789,-22.86914 0.45887,-0.26207 0.8082,-0.40297 1.13867,-0.38477 z m 33.34961,1.55469 c 6.14472,-0.0334 10.36096,4.32289 9.86523,11.41211 -0.25635,3.66597 -2.61988,7.81859 -5.30664,9.32227 l -1.70312,0.95312 5.10937,3.95117 c 5.67144,4.38504 8.18138,8.29958 6.66016,10.39258 -1.29069,1.77584 -3.88373,1.4111 -6.75977,-0.95117 -2.81648,-2.31338 -12.11793,-9.34914 -12.93359,-9.7832 -0.27423,-0.14583 -0.58777,1.01621 -0.69727,2.58203 -0.25685,3.67322 -1.39506,5.43092 -3.42383,5.28906 -2.10537,-0.14722 -2.3762,-1.23706 -1.92187,-7.73437 0.20742,-2.96599 0.0818,-5.60559 -0.2793,-5.86524 -0.99507,-0.7155 -0.57705,-3.55109 0.6543,-4.43555 1.49309,-1.07251 1.88319,-6.98727 0.54492,-8.26562 -1.78353,-1.7038 -0.59806,-3.49814 3.50781,-5.31055 2.37399,-1.04791 4.63536,-1.5455 6.6836,-1.55664 z m -144.30078,0.37891 c 0.62326,-0.10877 1.07344,0.26293 1.81445,1.30664 1.45817,2.05384 1.36343,4.62304 -0.33984,9.27539 -1.47589,4.0313 -3.31452,13.76753 -2.95899,15.66992 0.21062,1.12698 0.71166,1.28459 3.62305,1.14453 4.40006,-0.21169 5.37158,0.30671 5.19922,2.77149 -0.11956,1.70978 -0.60194,2.19021 -3.15039,3.13867 -3.1868,1.18605 -6.85134,1.19187 -9.26954,0.0156 -0.80385,-0.391 -1.93085,-1.54834 -2.5039,-2.57226 -1.55114,-2.77161 -0.0538,-14.10405 2.7539,-20.84961 1.15071,-2.76455 2.25994,-5.91361 2.46485,-6.99805 0.20491,-1.08443 0.95483,-2.27299 1.66797,-2.64062 0.26335,-0.13576 0.49146,-0.22546 0.69922,-0.26172 z m 67.86914,1.93359 c 2.53521,0.21402 3.60699,6.60243 2.90039,17.81641 -0.33577,5.33132 -0.62411,6.51116 -1.94336,7.9668 -3.26144,3.5983 -8.07896,0.8201 -11.22071,-6.47071 l -1.7207,-3.99609 -0.53906,7.23828 c -0.53354,7.16037 -1.15004,8.84881 -3.17774,8.70703 -0.48189,-0.0337 -1.27532,-0.78834 -1.76367,-1.67578 -1.16345,-2.11416 -1.71879,-10.88356 -1.17773,-18.62109 0.55696,-7.96484 1.77593,-10.09167 5.63867,-9.84375 2.38753,0.15393 3.67071,2.10262 6.49023,9.85742 l 2.26172,6.21875 0.91211,-8.11914 c 0.7587,-6.75016 1.12362,-8.2291 2.16602,-8.78711 0.42102,-0.22538 0.81165,-0.32159 1.17383,-0.29102 z m 17.39062,0.49805 c 1.15398,0.11681 2.22263,0.70696 2.78711,1.72656 0.49144,0.88766 1.18335,4.42734 1.53711,7.86524 1.2858,12.49572 1.96997,12.80749 3.23047,1.47461 0.79028,-7.10545 2.15722,-10.4082 4.25195,-10.26172 2.02235,0.14141 2.33261,2.13221 1.80274,11.57422 -0.7384,13.15729 -2.4228,16.65432 -7.8418,16.27539 -2.83103,-0.19797 -5.24766,-3.17979 -6.54297,-8.07422 l -1.01367,-3.83203 -1.6582,5.32421 c -2.2823,7.32772 -5.15742,10.11363 -7.57032,7.3379 -0.8822,-1.01491 -0.84276,-3.8028 0.0605,-4.27735 0.33611,-0.17664 1.19463,-3.11999 1.9082,-6.54101 1.83214,-8.78407 4.20492,-15.99789 5.75,-17.48243 0.90622,-0.87071 2.14485,-1.22618 3.29883,-1.10937 z m 58.43555,3.5918 c -0.24312,0.0201 -0.49734,0.0649 -0.75977,0.13672 -1.76886,0.48394 -1.9485,0.84149 -2.41406,4.7832 -0.49387,4.18176 -0.47111,4.26262 1.27539,4.38476 0.97865,0.0684 2.59091,-0.57984 3.58203,-1.4414 3.3549,-2.91635 1.9632,-8.16515 -1.68359,-7.86328 z m -113.9707,4.48437 c -0.27289,0.12352 -0.62791,0.88548 -1.15235,2.32617 -0.79395,2.18097 -0.54015,2.53451 1.16016,1.61719 0.67263,-0.36287 0.88372,-1.14817 0.6543,-2.4375 -0.19816,-1.11362 -0.38923,-1.62938 -0.66211,-1.50586 z"
       inkscape:export-filename="/home/tep/Projekte/trans-europe-planner/favicon.ico"
       inkscape:export-xdpi="96"
       inkscape:export-ydpi="96" />
  </g>
</svg>
