<?xml version="1.0" encoding="UTF-8" standalone="no"?>
<svg
   id="Ebene_2"
   viewBox="0 0 78.4 36.2"
   version="1.1"
   sodipodi:docname="logo2.svg"
   inkscape:version="1.1.2 (0a00cf5339, 2022-02-04)"
   xmlns:inkscape="http://www.inkscape.org/namespaces/inkscape"
   xmlns:sodipodi="http://sodipodi.sourceforge.net/DTD/sodipodi-0.dtd"
   xmlns="http://www.w3.org/2000/svg"
   xmlns:svg="http://www.w3.org/2000/svg">
  <sodipodi:namedview
     id="namedview11"
     pagecolor="#ffffff"
     bordercolor="#666666"
     borderopacity="1.0"
     inkscape:pageshadow="2"
     inkscape:pageopacity="0.0"
     inkscape:pagecheckerboard="0"
     showgrid="false"
     inkscape:zoom="14.808673"
     inkscape:cx="37.579329"
     inkscape:cy="18.097503"
     inkscape:window-width="1920"
     inkscape:window-height="1019"
     inkscape:window-x="0"
     inkscape:window-y="30"
     inkscape:window-maximized="1"
     inkscape:current-layer="Ebene_2" />
  <defs
     id="defs4">
    <style
       id="style2">
      .cls-1 {
        fill: #fff;
      }
    </style>
  </defs>
  <g
     id="DARK_BG"
     style="fill:#000000;fill-opacity:1">
    <g
       id="_x32_nd"
       style="fill:#000000;fill-opacity:1">
      <path
         class="cls-1"
         d="M9.39,20.16h17.71l.43,2.25H8.92l.47-2.25ZM25.51,1.58l.9,4.75h.37c.8,0,1.45.65,1.45,1.45v2.9c0,.55-.3,1.02-.75,1.27l.46,2.43h.65c.8,0,1.45.65,1.45,1.45v2.9c0,.65-.42,1.19-1.01,1.38l.44,2.32h.93c.8,0,1.45.65,1.45,1.45v2.9c0,.74-.56,1.35-1.28,1.44l.48,2.54c3.18-3.26,5.14-7.72,5.14-12.63,0-7.36-4.39-13.69-10.69-16.52ZM11.06,12.12l-.47,2.25h15.4l-.43-2.25h-14.5ZM23.41.79c-1.68-.51-3.46-.79-5.31-.79-1.6,0-3.15.21-4.63.6l-1.2,5.73h12.19l-1.05-5.54ZM7.71,28.2l-.85,4.08c3.09,2.45,6.99,3.91,11.24,3.91s8.2-1.48,11.3-3.96l-.77-4.03H7.71ZM5.79,22.41h1.17l.47-2.26c-.72-.08-1.28-.7-1.28-1.44v-2.9c0-.8.65-1.45,1.45-1.45h1.04l.48-2.28c-.66-.14-1.15-.72-1.15-1.42v-2.9c0-.8.65-1.45,1.45-1.45h.9l1.05-5.04C4.7,3.97,0,10.48,0,18.1c0,4.95,1.99,9.44,5.21,12.7l.54-2.6c-.78-.02-1.41-.66-1.41-1.45v-2.9c0-.8.65-1.45,1.45-1.45ZM46.89,3.77v-1.23h-4.73v1.23h1.65v6.11h1.43V3.77h1.65ZM47.92,4.74v5.14h1v-2.06h.12l1.37,2.06h1.25l-1.6-2.17c.25-.05.43-.13.56-.22.4-.27.6-.71.6-1.21,0-.39-.12-.82-.51-1.16-.24-.2-.6-.39-1.31-.39h-1.49ZM48.92,5.56h.3c.19,0,.97,0,.97.77s-.79.78-.99.78h-.29v-1.55ZM56.1,9.88h1.08l-2.15-5.14h-.79l-2.21,5.14h1.09l.46-1.08h2.07l.46,1.08ZM53.89,7.98l.73-1.85.73,1.85h-1.46ZM59.04,9.88v-3.44l3.13,3.44h.69v-5.14h-1v3.43l-3.13-3.43h-.69v5.14h1ZM67.34,5.23c-.52-.54-1.13-.6-1.46-.6-1.14,0-1.65.76-1.65,1.51,0,.52.24.81.41.96.26.23.58.35.86.45.29.1.6.2.79.38.14.13.2.28.2.46,0,.43-.34.71-.79.71-.36,0-.83-.19-1.08-.69l-.66.62c.27.39.83.97,1.77.97,1.06,0,1.79-.69,1.79-1.69,0-.52-.21-.87-.44-1.08-.26-.24-.64-.38-1.04-.52-.32-.12-.49-.18-.62-.29-.12-.11-.16-.22-.16-.35,0-.26.17-.6.71-.6.18,0,.54.04.84.44l.52-.69ZM47,13.54h-4.07v7.34h4.07v-1.23h-2.64v-2h2.53v-1.23h-2.53v-1.64h2.64v-1.23ZM48.51,15.74v3.14c0,.49.08.98.38,1.37.37.49,1.02.74,1.68.74s1.31-.25,1.68-.74c.31-.39.38-.89.38-1.37v-3.14h-1v3.23c0,.39-.13.63-.25.76-.15.18-.42.35-.82.35s-.67-.18-.82-.35c-.12-.13-.25-.37-.25-.76v-3.23h-1ZM54.07,15.74v5.14h1v-2.06h.12l1.37,2.06h1.25l-1.6-2.17c.25-.05.43-.13.56-.22.4-.27.6-.71.6-1.21,0-.39-.12-.82-.51-1.16-.24-.2-.6-.39-1.31-.39h-1.49ZM55.07,16.56h.3c.19,0,.97,0,.97.77s-.79.78-.99.78h-.29v-1.55ZM61.25,15.62c-1.62,0-2.74,1.12-2.74,2.69s1.12,2.68,2.74,2.68,2.74-1.12,2.74-2.68-1.12-2.69-2.74-2.69ZM61.25,20.09c-1,0-1.71-.73-1.71-1.77s.71-1.78,1.71-1.78,1.71.74,1.71,1.78-.71,1.77-1.71,1.77ZM65.18,15.74v5.14h1v-1.9h.65c.59,0,1.02-.17,1.3-.45.39-.39.42-.95.42-1.15,0-.37-.11-.87-.52-1.24-.38-.33-.78-.39-1.36-.39h-1.49ZM66.18,16.6h.35c.24,0,.5.02.71.16.15.11.29.3.29.59,0,.22-.09.45-.28.6-.22.16-.46.16-.65.16h-.41v-1.51ZM72.4,15.74h-2.85v5.14h2.85v-.86h-1.85v-1.4h1.77v-.86h-1.77v-1.15h1.85v-.86ZM42.93,24.54v7.34h1.43v-2.72h.92c.85,0,1.45-.24,1.86-.65.56-.56.61-1.35.61-1.64,0-.53-.15-1.24-.75-1.77-.54-.47-1.11-.56-1.94-.56h-2.13ZM44.36,25.77h.5c.34,0,.71.02,1.01.23.21.15.41.43.41.84,0,.32-.13.65-.4.86-.31.23-.66.23-.93.23h-.58v-2.16ZM48.93,26.74v5.14h2.59v-.86h-1.59v-4.28h-1ZM56.13,31.88h1.08l-2.15-5.14h-.79l-2.21,5.14h1.09l.46-1.08h2.07l.46,1.08ZM53.92,29.98l.73-1.85.73,1.85h-1.46ZM59.07,31.88v-3.44l3.13,3.44h.69v-5.14h-1v3.43l-3.13-3.43h-.69v5.14h1ZM65.32,31.88v-3.44l3.13,3.44h.69v-5.14h-1v3.43l-3.13-3.43h-.69v5.14h1ZM73.43,26.74h-2.85v5.14h2.85v-.86h-1.85v-1.4h1.77v-.86h-1.77v-1.15h1.85v-.86ZM74.66,26.74v5.14h1v-2.06h.12l1.37,2.06h1.25l-1.6-2.17c.25-.05.43-.13.56-.22.4-.27.6-.71.6-1.21,0-.39-.12-.82-.51-1.16-.24-.2-.6-.39-1.31-.39h-1.49ZM75.66,27.56h.3c.19,0,.97,0,.97.77s-.79.78-.99.78h-.29v-1.55Z"
         id="path6"
         style="fill:#000000;fill-opacity:1" />
    </g>
  </g>
</svg>
