<?xml version="1.0" encoding="UTF-8"?>
<svg id="Ebene_2" xmlns="http://www.w3.org/2000/svg" viewBox="0 0 95.97 95.97">
  <defs>
    <style>
      .cls-1 {
        fill: #26619c;
      }
    </style>
  </defs>
  <g id="LIGHT_BG">
    <g id="Ebene_2-2" data-name="Ebene_2">
      <g>
        <polygon class="cls-1" points="31.96 28.6 31.96 22.21 33.69 22.21 33.69 20.92 28.74 20.92 28.74 22.21 30.47 22.21 30.47 28.6 31.96 28.6"/>
        <polygon class="cls-1" points="68.92 38.11 67.78 32.14 29.33 32.14 28.09 38.11 68.92 38.11"/>
        <path class="cls-1" d="M23.06,63.27v7.68h1.5v-2.84h.97c.89,0,1.52-.25,1.95-.68.59-.59.63-1.42.63-1.71,0-.55-.16-1.3-.78-1.85-.56-.49-1.16-.59-2.03-.59h-2.23ZM26.56,65.67c0,.33-.14.68-.41.9-.32.24-.69.24-.98.24h-.61v-2.26h.52c.36,0,.75.02,1.06.24.22.16.43.45.43.87Z"/>
        <path class="cls-1" d="M47.83,26.99l.68,1.61h1.61l-3.21-7.68h-1.17l-3.3,7.68h1.62l.68-1.61h3.1ZM46.3,23l1.09,2.76h-2.19l1.09-2.76Z"/>
        <polygon class="cls-1" points="58.22 28.6 59.25 28.6 59.25 20.92 57.76 20.92 57.76 26.04 53.08 20.92 52.05 20.92 52.05 28.6 53.54 28.6 53.54 23.46 58.22 28.6"/>
        <path class="cls-1" d="M40.59,23.22c0-.58-.17-1.23-.76-1.73-.36-.3-.9-.58-1.96-.58h-2.22v7.68h1.5v-3.08h.18l2.05,3.08h1.86l-2.39-3.23c.37-.07.64-.2.84-.33.6-.4.9-1.06.9-1.81ZM37.58,24.45h-.43v-2.31h.45c.28,0,1.45.01,1.45,1.15s-1.19,1.16-1.47,1.16Z"/>
        <polygon class="cls-1" points="29.6 63.27 29.6 70.95 33.46 70.95 33.46 69.66 31.09 69.66 31.09 63.27 29.6 63.27"/>
        <polygon class="cls-1" points="53.64 63.27 52.61 63.27 52.61 70.95 54.1 70.95 54.1 65.81 58.78 70.95 59.81 70.95 59.81 63.27 58.32 63.27 58.32 68.39 53.64 63.27"/>
        <polygon class="cls-1" points="71.84 53.46 24.88 53.46 23.64 59.43 72.98 59.43 71.84 53.46"/>
        <path class="cls-1" d="M34.28,70.95h1.62l.68-1.61h3.1l.68,1.61h1.61l-3.21-7.68h-1.17l-3.3,7.68ZM39.24,68.11h-2.19l1.09-2.76,1.09,2.76Z"/>
        <path class="cls-1" d="M70.03,16.79h.99c2.12,0,3.84,1.72,3.84,3.84v7.68c0,1.45-.81,2.71-2,3.37l1.23,6.44h1.73c2.12,0,3.84,1.72,3.84,3.84v7.68c0,1.72-1.13,3.17-2.68,3.66l1.17,6.14h2.47c2.12,0,3.84,1.72,3.84,3.84v7.68c0,1.97-1.48,3.59-3.39,3.81l1.28,6.72c8.43-8.65,13.63-20.46,13.63-33.49,0-19.5-11.63-36.28-28.34-43.79l2.4,12.59Z"/>
        <polygon class="cls-1" points="66.21 64.56 66.21 63.27 61.95 63.27 61.95 70.95 66.21 70.95 66.21 69.66 63.45 69.66 63.45 67.56 66.1 67.56 66.1 66.27 63.45 66.27 63.45 64.56 66.21 64.56"/>
        <path class="cls-1" d="M64.13,27.41c-.54,0-1.24-.28-1.61-1.02l-.98.93c.4.59,1.23,1.45,2.65,1.45,1.59,0,2.67-1.02,2.67-2.52,0-.78-.31-1.3-.66-1.61-.39-.36-.96-.56-1.55-.77-.48-.17-.74-.26-.92-.44-.18-.16-.24-.33-.24-.52,0-.39.25-.9,1.06-.9.28,0,.81.06,1.25.66l.78-1.02c-.78-.81-1.69-.9-2.18-.9-1.7,0-2.46,1.13-2.46,2.26,0,.78.36,1.21.61,1.43.39.35.87.53,1.28.67.44.15.9.3,1.19.56.21.2.3.41.3.69,0,.64-.51,1.06-1.19,1.06Z"/>
        <polygon class="cls-1" points="44.3 63.27 43.26 63.27 43.26 70.95 44.76 70.95 44.76 65.81 49.43 70.95 50.46 70.95 50.46 63.27 48.97 63.27 48.97 68.39 44.3 63.27"/>
        <path class="cls-1" d="M69.55,67.86h.18l2.05,3.08h1.86l-2.39-3.23c.37-.07.64-.2.84-.33.6-.4.9-1.06.9-1.81,0-.58-.17-1.23-.76-1.73-.36-.3-.9-.58-1.96-.58h-2.22v7.68h1.5v-3.08ZM69.55,64.49h.45c.28,0,1.45.01,1.45,1.15s-1.19,1.16-1.47,1.16h-.43v-2.31Z"/>
        <path class="cls-1" d="M32.53,16.79h32.33l-2.8-14.69c-4.45-1.36-9.18-2.1-14.08-2.1-4.25,0-8.36.55-12.28,1.59l-3.17,15.2Z"/>
        <polygon class="cls-1" points="27.23 49.75 31.49 49.75 31.49 48.46 28.73 48.46 28.73 46.36 31.37 46.36 31.37 45.07 28.73 45.07 28.73 43.36 31.49 43.36 31.49 42.07 27.23 42.07 27.23 49.75"/>
        <path class="cls-1" d="M46.58,44.37c0-.58-.17-1.23-.76-1.73-.36-.3-.9-.58-1.96-.58h-2.22v7.68h1.5v-3.08h.18l2.05,3.08h1.86l-2.39-3.23c.37-.07.64-.2.84-.33.6-.4.9-1.06.9-1.81ZM43.56,45.6h-.43v-2.31h.45c.28,0,1.45.01,1.45,1.15s-1.19,1.16-1.47,1.16Z"/>
        <path class="cls-1" d="M33.33,42.07v4.7c0,.73.12,1.46.58,2.05.55.73,1.52,1.1,2.51,1.1s1.96-.38,2.51-1.1c.46-.59.58-1.32.58-2.05v-4.7h-1.5v4.82c0,.59-.2.94-.37,1.14-.22.26-.62.53-1.22.53s-1-.26-1.22-.53c-.17-.2-.37-.55-.37-1.14v-4.82h-1.5Z"/>
        <path class="cls-1" d="M15.25,74.78c-2.07-.06-3.74-1.75-3.74-3.83v-7.68c0-2.12,1.72-3.84,3.84-3.84h3.1l1.25-5.99c-1.91-.22-3.39-1.84-3.39-3.81v-7.68c0-2.12,1.72-3.84,3.84-3.84h2.74l1.26-6.05c-1.74-.37-3.05-1.91-3.05-3.76v-7.68c0-2.12,1.72-3.84,3.84-3.84h2.39l2.78-13.35C12.47,10.52,0,27.79,0,47.98c0,13.13,5.27,25.02,13.81,33.68l1.44-6.89Z"/>
        <path class="cls-1" d="M75.9,74.78H20.44l-2.25,10.81c8.19,6.5,18.54,10.38,29.8,10.38s21.74-3.93,29.95-10.5l-2.04-10.69Z"/>
        <path class="cls-1" d="M58.24,42.07v7.68h1.5v-2.84h.97c.89,0,1.52-.25,1.95-.68.59-.59.63-1.42.63-1.71,0-.55-.16-1.3-.78-1.85-.56-.49-1.16-.59-2.03-.59h-2.23ZM61.74,44.47c0,.33-.14.68-.41.9-.32.24-.69.24-.98.24h-.61v-2.26h.52c.36,0,.75.02,1.06.24.22.16.43.45.43.87Z"/>
        <path class="cls-1" d="M48.27,45.91c0,2.34,1.68,4.01,4.1,4.01s4.1-1.67,4.1-4.01-1.68-4.02-4.1-4.02-4.1,1.68-4.1,4.02ZM54.93,45.91c0,1.55-1.06,2.65-2.56,2.65s-2.56-1.09-2.56-2.65,1.06-2.66,2.56-2.66,2.56,1.1,2.56,2.66Z"/>
        <polygon class="cls-1" points="69.04 43.36 69.04 42.07 64.78 42.07 64.78 49.75 69.04 49.75 69.04 48.46 66.28 48.46 66.28 46.36 68.92 46.36 68.92 45.07 66.28 45.07 66.28 43.36 69.04 43.36"/>
      </g>
    </g>
  </g>
</svg>