<?xml version="1.0" encoding="UTF-8" standalone="no"?>
<!-- Generator: Adobe Illustrator 18.0.0, SVG Export Plug-In . SVG Version: 6.00 Build 0)  -->

<svg
   version="1.1"
   id="Layer_1"
   x="0px"
   y="0px"
   viewBox="0 0 50.000004 77.600159"
   enable-background="new 0 0 365 560"
   xml:space="preserve"
   sodipodi:docname="marker_home_inverted.svg"
   inkscape:version="1.1.2 (0a00cf5339, 2022-02-04)"
   width="50.000004"
   height="77.600159"
   xmlns:inkscape="http://www.inkscape.org/namespaces/inkscape"
   xmlns:sodipodi="http://sodipodi.sourceforge.net/DTD/sodipodi-0.dtd"
   xmlns="http://www.w3.org/2000/svg"
   xmlns:svg="http://www.w3.org/2000/svg"><defs
   id="defs9" /><sodipodi:namedview
   id="namedview7"
   pagecolor="#ffffff"
   bordercolor="#666666"
   borderopacity="1.0"
   inkscape:pageshadow="2"
   inkscape:pageopacity="0.0"
   inkscape:pagecheckerboard="0"
   showgrid="false"
   inkscape:zoom="8.8"
   inkscape:cx="39.659091"
   inkscape:cy="27.727273"
   inkscape:window-width="1920"
   inkscape:window-height="1019"
   inkscape:window-x="0"
   inkscape:window-y="30"
   inkscape:window-maximized="1"
   inkscape:current-layer="Layer_1"
   fit-margin-top="0"
   fit-margin-left="0"
   fit-margin-right="0"
   fit-margin-bottom="0" />
<g
   id="g4"
   transform="translate(-6.6979249,-6.8979188)">
	
</g><path
   id="path1081"
   style="fill:#000000;fill-opacity:1;stroke:#0c3e87;stroke-width:0.227601"
   d="M 25 0.11328125 C 12.712967 0.14166125 0.11328125 8.1719406 0.11328125 26.630859 C 0.11328125 39.173277 24.986328 77.339844 24.986328 77.339844 L 25 77.298828 C 25 77.313018 25.029297 77.339844 25.029297 77.339844 C 25.029297 77.339844 49.886719 39.173277 49.886719 26.630859 C 49.886719 8.1719406 37.287029 0.14165775 25 0.11328125 z M 34.085938 12.503906 C 35.201158 12.503906 36.103516 13.408238 36.103516 14.523438 L 36.103516 22.113281 L 37.986328 23.767578 C 38.074471 23.861575 38.123471 23.986384 38.123047 24.115234 C 38.122118 24.394033 37.894034 24.618116 37.615234 24.617188 L 15.916016 24.617188 L 12.375 24.566406 C 12.24922 24.56467 12.128909 24.517641 12.037109 24.431641 C 11.83365 24.241022 11.823054 23.920259 12.013672 23.716797 L 24.632812 12.685547 L 24.654297 12.664062 C 24.857354 12.473805 25.176368 12.483015 25.367188 12.685547 L 32.066406 18.5625 L 32.066406 14.523438 C 32.066406 13.408237 32.970717 12.503906 34.085938 12.503906 z M 13.896484 26.636719 L 36.103516 26.636719 L 36.103516 38.246094 C 36.103516 38.524894 35.878409 38.75 35.599609 38.75 L 28.029297 38.75 L 28.029297 32.693359 L 21.970703 32.693359 L 21.970703 38.75 L 14.400391 38.75 C 14.121591 38.75 13.896484 38.524894 13.896484 38.246094 L 13.896484 26.636719 z " />
</svg>
