<?xml version="1.0" encoding="UTF-8" standalone="no"?>
<!-- Generator: Adobe Illustrator 18.0.0, SVG Export Plug-In . SVG Version: 6.00 Build 0)  -->

<svg
   version="1.1"
   id="Layer_1"
   x="0px"
   y="0px"
   viewBox="0 0 50.000004 77.600159"
   enable-background="new 0 0 365 560"
   xml:space="preserve"
   sodipodi:docname="marker_info.svg"
   inkscape:version="1.1.2 (0a00cf5339, 2022-02-04)"
   width="50.000004"
   height="77.600159"
   xmlns:inkscape="http://www.inkscape.org/namespaces/inkscape"
   xmlns:sodipodi="http://sodipodi.sourceforge.net/DTD/sodipodi-0.dtd"
   xmlns="http://www.w3.org/2000/svg"
   xmlns:svg="http://www.w3.org/2000/svg"><defs
   id="defs9" /><sodipodi:namedview
   id="namedview7"
   pagecolor="#ffffff"
   bordercolor="#666666"
   borderopacity="1.0"
   inkscape:pageshadow="2"
   inkscape:pageopacity="0.0"
   inkscape:pagecheckerboard="0"
   showgrid="false"
   inkscape:zoom="2.2"
   inkscape:cx="-141.36364"
   inkscape:cy="118.18182"
   inkscape:window-width="1920"
   inkscape:window-height="1019"
   inkscape:window-x="0"
   inkscape:window-y="30"
   inkscape:window-maximized="1"
   inkscape:current-layer="Layer_1"
   fit-margin-top="0"
   fit-margin-left="0"
   fit-margin-right="0"
   fit-margin-bottom="0" />
<text
   xml:space="preserve"
   style="font-style:normal;font-weight:normal;font-size:37.5887px;line-height:1.25;font-family:sans-serif;fill:#000000;fill-opacity:1;stroke:none;stroke-width:0.939717"
   x="14.474063"
   y="38.750202"
   id="text1798"><tspan
     sodipodi:role="line"
     id="tspan1796"
     x="14.474063"
     y="38.750202"
     style="stroke-width:0.939717">?</tspan></text><g
   id="g4"
   transform="translate(-6.6979249,-6.8979188)">
	
</g><path
   id="path1081"
   style="fill:#000000;stroke:#0c3e87;stroke-width:0.227601;fill-opacity:1"
   d="M 45.676522,25.390183 A 20.676522,21.700484 0 0 1 24.999999,47.090665 20.676522,21.700484 0 0 1 4.3234771,25.390183 20.676522,21.700484 0 0 1 24.999999,3.6896992 20.676522,21.700484 0 0 1 45.676522,25.390183 Z M 25,77.297913 c 0,0.01419 0.02838,0.04256 0.02838,0.04256 0,0 24.857824,-38.166406 24.857824,-50.708824 0,-18.4589188 -12.599171,-26.48947169 -24.8862,-26.51784819 C 12.712971,0.14218081 0.1138005,8.1727342 0.1138005,26.631653 c 0,12.542418 24.8720115,50.708824 24.8720115,50.708824 z" />
</svg>
