<?xml version="1.0" encoding="UTF-8" standalone="no"?>
<!-- Generator: Adobe Illustrator 18.0.0, SVG Export Plug-In . SVG Version: 6.00 Build 0)  -->

<svg
   version="1.1"
   id="Layer_1"
   x="0px"
   y="0px"
   viewBox="0 0 50.000004 77.600159"
   enable-background="new 0 0 365 560"
   xml:space="preserve"
   sodipodi:docname="marker_flag.svg"
   inkscape:version="1.1.2 (0a00cf5339, 2022-02-04)"
   width="50.000004"
   height="77.600159"
   xmlns:inkscape="http://www.inkscape.org/namespaces/inkscape"
   xmlns:sodipodi="http://sodipodi.sourceforge.net/DTD/sodipodi-0.dtd"
   xmlns="http://www.w3.org/2000/svg"
   xmlns:svg="http://www.w3.org/2000/svg"><defs
   id="defs9" /><sodipodi:namedview
   id="namedview7"
   pagecolor="#ffffff"
   bordercolor="#666666"
   borderopacity="1.0"
   inkscape:pageshadow="2"
   inkscape:pageopacity="0.0"
   inkscape:pagecheckerboard="0"
   showgrid="false"
   inkscape:zoom="1.1"
   inkscape:cx="-397.72727"
   inkscape:cy="272.72727"
   inkscape:window-width="1920"
   inkscape:window-height="1019"
   inkscape:window-x="0"
   inkscape:window-y="30"
   inkscape:window-maximized="1"
   inkscape:current-layer="Layer_1"
   fit-margin-top="0"
   fit-margin-left="0"
   fit-margin-right="0"
   fit-margin-bottom="0" />
<g
   id="g4"
   transform="translate(-6.6979249,-6.8979188)">
	
</g><path
   id="path1081"
   style="fill:#000000;stroke:#0c3e87;stroke-width:0.227601;fill-opacity:1"
   d="M 45.676522,25.390183 A 20.676522,21.700484 0 0 1 24.999999,47.090665 20.676522,21.700484 0 0 1 4.3234771,25.390183 20.676522,21.700484 0 0 1 24.999999,3.6896992 20.676522,21.700484 0 0 1 45.676522,25.390183 Z M 25,77.297913 c 0,0.01419 0.02838,0.04256 0.02838,0.04256 0,0 24.857824,-38.166406 24.857824,-50.708824 0,-18.4589188 -12.599171,-26.48947169 -24.8862,-26.51784819 C 12.712971,0.14218081 0.1138005,8.1727342 0.1138005,26.631653 c 0,12.542418 24.8720115,50.708824 24.8720115,50.708824 z" />
<path
   d="m 23.706946,14.52605 c -2.622943,0 -4.665399,2.790451 -5.460882,3.680161 -0.158023,0.18239 -0.241871,0.411893 -0.236495,0.647061 v 8.89709 c -0.02494,0.490756 0.377962,0.907706 0.899756,0.931162 0.23542,0.01051 0.46654,-0.06188 0.648211,-0.203218 1.002953,-1.266622 2.491582,-2.115283 4.14941,-2.365818 3.031436,0 4.19241,2.568026 7.352842,2.568026 2.138775,-0.197356 4.174135,-0.961695 5.869375,-2.204053 0.273473,-0.188861 0.43343,-0.489745 0.429989,-0.808827 V 15.435979 c 0.05912,-0.488127 -0.313678,-0.929139 -0.832892,-0.984747 -0.170706,-0.0182 -0.343777,0.0077 -0.500079,0.07482 -1.464764,1.0539 -3.161722,1.786293 -4.966393,2.14339 -3.160432,0.04044 -4.192409,-2.14339 -7.352842,-2.14339 z m -8.922308,2.022066 c -1.187419,0 -2.149954,-0.905279 -2.149954,-2.022066 0,-1.116789 0.962535,-2.022068 2.149954,-2.022068 1.187419,0 2.149955,0.905279 2.149955,2.022068 0,1.116787 -0.962536,2.022066 -2.149955,2.022066 z m 1.074977,2.022066 V 37.73937 c 0,0.558293 -0.481375,1.011033 -1.074977,1.011033 -0.593603,0 -1.074978,-0.45274 -1.074978,-1.011033 V 18.570182 c 0,-0.558294 0.481375,-1.011034 1.074978,-1.011034 0.593602,0 1.074977,0.45274 1.074977,1.011034 z"
   id="path2"
   style="fill:#000000;fill-opacity:1;stroke-width:2.08504" /></svg>
