<?xml version="1.0" encoding="UTF-8" standalone="no"?>
<!-- Generator: Adobe Illustrator 18.0.0, SVG Export Plug-In . SVG Version: 6.00 Build 0)  -->

<svg
   version="1.1"
   id="Layer_1"
   x="0px"
   y="0px"
   viewBox="0 0 81.233574 26.24642"
   enable-background="new 0 0 365 560"
   xml:space="preserve"
   sodipodi:docname="network.svg"
   inkscape:version="1.1.2 (0a00cf5339, 2022-02-04)"
   width="81.233574"
   height="26.24642"
   xmlns:inkscape="http://www.inkscape.org/namespaces/inkscape"
   xmlns:sodipodi="http://sodipodi.sourceforge.net/DTD/sodipodi-0.dtd"
   xmlns="http://www.w3.org/2000/svg"
   xmlns:svg="http://www.w3.org/2000/svg"><defs
   id="defs9"><marker
     style="overflow:visible"
     id="TriangleInM"
     refX="0.0"
     refY="0.0"
     orient="auto"
     inkscape:stockid="TriangleInM"
     inkscape:isstock="true"><path
       transform="scale(-0.4)"
       style="fill-rule:evenodd;fill:context-stroke;stroke:context-stroke;stroke-width:1.0pt"
       d="M 5.77,0.0 L -2.88,5.0 L -2.88,-5.0 L 5.77,0.0 z "
       id="path1082" /></marker><marker
     style="overflow:visible"
     id="marker2578"
     refX="0.0"
     refY="0.0"
     orient="auto"
     inkscape:stockid="Arrow2Sstart"
     inkscape:isstock="true"><path
       transform="scale(0.3) translate(-2.3,0)"
       d="M 8.7185878,4.0337352 L -2.2072895,0.016013256 L 8.7185884,-4.0017078 C 6.9730900,-1.6296469 6.9831476,1.6157441 8.7185878,4.0337352 z "
       style="stroke:context-stroke;fill-rule:evenodd;fill:context-stroke;stroke-width:0.62500000;stroke-linejoin:round"
       id="path2576" /></marker><marker
     style="overflow:visible"
     id="Arrow2Mstart"
     refX="0.0"
     refY="0.0"
     orient="auto"
     inkscape:stockid="Arrow2Mstart"
     inkscape:isstock="true"><path
       transform="scale(0.6) translate(0,0)"
       d="M 8.7185878,4.0337352 L -2.2072895,0.016013256 L 8.7185884,-4.0017078 C 6.9730900,-1.6296469 6.9831476,1.6157441 8.7185878,4.0337352 z "
       style="stroke:context-stroke;fill-rule:evenodd;fill:context-stroke;stroke-width:0.62500000;stroke-linejoin:round"
       id="path970" /></marker><marker
     style="overflow:visible"
     id="Arrow2Sstart"
     refX="0.0"
     refY="0.0"
     orient="auto"
     inkscape:stockid="Arrow2Sstart"
     inkscape:isstock="true"><path
       transform="scale(0.3) translate(-2.3,0)"
       d="M 8.7185878,4.0337352 L -2.2072895,0.016013256 L 8.7185884,-4.0017078 C 6.9730900,-1.6296469 6.9831476,1.6157441 8.7185878,4.0337352 z "
       style="stroke:context-stroke;fill-rule:evenodd;fill:context-stroke;stroke-width:0.62500000;stroke-linejoin:round"
       id="path976" /></marker><marker
     style="overflow:visible"
     id="TriangleOutM"
     refX="0"
     refY="0"
     orient="auto"
     inkscape:stockid="TriangleOutM"
     inkscape:isstock="true"><path
       transform="scale(0.4)"
       style="fill:context-stroke;fill-rule:evenodd;stroke:context-stroke;stroke-width:1pt"
       d="M 5.77,0 -2.88,5 V -5 Z"
       id="path1091" /></marker><marker
     style="overflow:visible"
     id="Tail"
     refX="0"
     refY="0"
     orient="auto"
     inkscape:stockid="Tail"
     inkscape:isstock="true"><g
       transform="scale(-1.2)"
       id="g994"><path
         style="fill:none;fill-rule:evenodd;stroke:context-stroke;stroke-width:0.8;stroke-linecap:round"
         d="M -3.8048674,-3.9585227 0.54352094,0"
         id="path982" /><path
         style="fill:none;fill-rule:evenodd;stroke:context-stroke;stroke-width:0.8;stroke-linecap:round"
         d="M -1.2866832,-3.9585227 3.0617053,0"
         id="path984" /><path
         style="fill:none;fill-rule:evenodd;stroke:context-stroke;stroke-width:0.8;stroke-linecap:round"
         d="M 1.3053582,-3.9585227 5.6537466,0"
         id="path986" /><path
         style="fill:none;fill-rule:evenodd;stroke:context-stroke;stroke-width:0.8;stroke-linecap:round"
         d="M -3.8048674,4.1775838 0.54352094,0.21974226"
         id="path988" /><path
         style="fill:none;fill-rule:evenodd;stroke:context-stroke;stroke-width:0.8;stroke-linecap:round"
         d="M -1.2866832,4.1775838 3.0617053,0.21974226"
         id="path990" /><path
         style="fill:none;fill-rule:evenodd;stroke:context-stroke;stroke-width:0.8;stroke-linecap:round"
         d="M 1.3053582,4.1775838 5.6537466,0.21974226"
         id="path992" /></g></marker><marker
     style="overflow:visible"
     id="marker1715"
     refX="0"
     refY="0"
     orient="auto"
     inkscape:stockid="Arrow1Lend"
     inkscape:isstock="true"><path
       transform="matrix(-0.8,0,0,-0.8,-10,0)"
       style="fill:context-stroke;fill-rule:evenodd;stroke:context-stroke;stroke-width:1pt"
       d="M 0,0 5,-5 -12.5,0 5,5 Z"
       id="path1713" /></marker><marker
     style="overflow:visible"
     id="Arrow2Send"
     refX="0"
     refY="0"
     orient="auto"
     inkscape:stockid="Arrow2Send"
     inkscape:isstock="true"><path
       transform="matrix(-0.3,0,0,-0.3,0.69,0)"
       d="M 8.7185878,4.0337352 -2.2072895,0.01601326 8.7185884,-4.0017078 c -1.7454984,2.3720609 -1.7354408,5.6174519 -6e-7,8.035443 z"
       style="fill:context-stroke;fill-rule:evenodd;stroke:context-stroke;stroke-width:0.625;stroke-linejoin:round"
       id="path979" /></marker><marker
     style="overflow:visible"
     id="Arrow1Mend"
     refX="0"
     refY="0"
     orient="auto"
     inkscape:stockid="Arrow1Mend"
     inkscape:isstock="true"><path
       transform="matrix(-0.4,0,0,-0.4,-4,0)"
       style="fill:context-stroke;fill-rule:evenodd;stroke:context-stroke;stroke-width:1pt"
       d="M 0,0 5,-5 -12.5,0 5,5 Z"
       id="path955" /></marker><marker
     style="overflow:visible"
     id="Arrow1Lend"
     refX="0"
     refY="0"
     orient="auto"
     inkscape:stockid="Arrow1Lend"
     inkscape:isstock="true"><path
       transform="matrix(-0.8,0,0,-0.8,-10,0)"
       style="fill:context-stroke;fill-rule:evenodd;stroke:context-stroke;stroke-width:1pt"
       d="M 0,0 5,-5 -12.5,0 5,5 Z"
       id="path949" /></marker><marker
     style="overflow:visible"
     id="TriangleOutM-5"
     refX="0"
     refY="0"
     orient="auto"
     inkscape:stockid="TriangleOutM"
     inkscape:isstock="true"><path
       transform="scale(0.4)"
       style="fill:context-stroke;fill-rule:evenodd;stroke:context-stroke;stroke-width:1pt"
       d="M 5.77,0 -2.88,5 V -5 Z"
       id="path1091-3" /></marker><marker
     style="overflow:visible"
     id="TriangleOutM-9"
     refX="0"
     refY="0"
     orient="auto"
     inkscape:stockid="TriangleOutM"
     inkscape:isstock="true"><path
       transform="scale(0.4)"
       style="fill:context-stroke;fill-rule:evenodd;stroke:context-stroke;stroke-width:1pt"
       d="M 5.77,0 -2.88,5 V -5 Z"
       id="path1091-1" /></marker><marker
     style="overflow:visible"
     id="TriangleOutM-9-0"
     refX="0"
     refY="0"
     orient="auto"
     inkscape:stockid="TriangleOutM"
     inkscape:isstock="true"><path
       transform="scale(0.4)"
       style="fill:context-stroke;fill-rule:evenodd;stroke:context-stroke;stroke-width:1pt"
       d="M 5.77,0 -2.88,5 V -5 Z"
       id="path1091-1-9" /></marker><marker
     style="overflow:visible"
     id="TriangleOutM-9-6"
     refX="0"
     refY="0"
     orient="auto"
     inkscape:stockid="TriangleOutM"
     inkscape:isstock="true"><path
       transform="scale(0.4)"
       style="fill:context-stroke;fill-rule:evenodd;stroke:context-stroke;stroke-width:1pt"
       d="M 5.77,0 -2.88,5 V -5 Z"
       id="path1091-1-0" /></marker><marker
     style="overflow:visible"
     id="TriangleOutM-9-0-6"
     refX="0"
     refY="0"
     orient="auto"
     inkscape:stockid="TriangleOutM"
     inkscape:isstock="true"><path
       transform="scale(0.4)"
       style="fill:context-stroke;fill-rule:evenodd;stroke:context-stroke;stroke-width:1pt"
       d="M 5.77,0 -2.88,5 V -5 Z"
       id="path1091-1-9-2" /></marker></defs><sodipodi:namedview
   id="namedview7"
   pagecolor="#ffffff"
   bordercolor="#666666"
   borderopacity="1.0"
   inkscape:pageshadow="2"
   inkscape:pageopacity="0.0"
   inkscape:pagecheckerboard="0"
   showgrid="false"
   inkscape:zoom="8.8"
   inkscape:cx="32.954545"
   inkscape:cy="24.431818"
   inkscape:window-width="1920"
   inkscape:window-height="1019"
   inkscape:window-x="0"
   inkscape:window-y="30"
   inkscape:window-maximized="1"
   inkscape:current-layer="Layer_1"
   fit-margin-top="0"
   fit-margin-left="0"
   fit-margin-right="0"
   fit-margin-bottom="0" />
<g
   id="g4"
   transform="translate(-17.526732,-19.294726)">
	
</g>
<path
   d="m 39.906751,2.022067 c -2.622943,0 -4.665399,2.790451 -5.460882,3.680161 -0.158023,0.18239 -0.241871,0.411893 -0.236495,0.647061 v 8.897091 c -0.02494,0.490756 0.377962,0.907706 0.899756,0.931162 0.23542,0.01051 0.46654,-0.06188 0.648211,-0.203218 1.002953,-1.266622 2.491582,-2.115283 4.14941,-2.365818 3.031433,0 4.192413,2.568026 7.352843,2.568026 2.13877,-0.197356 4.17413,-0.961695 5.86937,-2.204054 0.27348,-0.188861 0.43343,-0.489745 0.42999,-0.808827 V 2.931996 c 0.0591,-0.488127 -0.31367,-0.929138 -0.83289,-0.984747 -0.1707,-0.0182 -0.34378,0.0077 -0.50008,0.07482 -1.46476,1.0539 -3.16172,1.786292 -4.96639,2.143389 -3.16043,0.04044 -4.19241,-2.143389 -7.352843,-2.143389 z m -8.922308,2.022066 c -1.187419,0 -2.149954,-0.905278 -2.149954,-2.022066 C 28.834489,0.905278 29.797024,0 30.984443,0 c 1.187419,0 2.149955,0.905279 2.149955,2.022068 0,1.116787 -0.962536,2.022065 -2.149955,2.022065 z m 1.074977,2.022066 v 19.169188 c 0,0.558294 -0.481375,1.011033 -1.074977,1.011033 -0.593603,0 -1.074978,-0.452739 -1.074978,-1.011033 V 6.066199 c 0,-0.558294 0.481375,-1.011034 1.074978,-1.011034 0.593602,0 1.074977,0.45274 1.074977,1.011034 z"
   id="path2"
   style="fill:#000000;fill-opacity:1;stroke-width:2.08504" /><path
   style="fill:none;stroke:#000000;stroke-width:1.67666;stroke-linecap:butt;stroke-linejoin:miter;stroke-miterlimit:4;stroke-dasharray:none;stroke-opacity:1;marker-start:url(#TriangleInM)"
   d="M 20.443606,9.89058 13.905444,8.10421 4.9585298,5.659734"
   id="path944-27"
   sodipodi:nodetypes="ccc" /><path
   style="fill:none;stroke:#000000;stroke-width:1.67666;stroke-linecap:butt;stroke-linejoin:miter;stroke-miterlimit:4;stroke-dasharray:none;stroke-opacity:1;marker-end:url(#TriangleOutM-9-0)"
   d="m 20.474047,16.810928 -6.5554,1.72204 -8.9704921,2.356478"
   id="path944-27-3"
   sodipodi:nodetypes="ccc" /><path
   style="fill:none;stroke:#000000;stroke-width:1.67666;stroke-linecap:butt;stroke-linejoin:miter;stroke-miterlimit:4;stroke-dasharray:none;stroke-opacity:1;marker-end:url(#TriangleOutM-9-6)"
   d="M 61.02511,9.89058 67.563272,8.10421 76.510186,5.659734"
   id="path944-27-6"
   sodipodi:nodetypes="ccc" /><path
   style="fill:none;stroke:#000000;stroke-width:1.67666;stroke-linecap:butt;stroke-linejoin:miter;stroke-miterlimit:4;stroke-dasharray:none;stroke-opacity:1;marker-start:url(#TriangleInM)"
   d="m 60.994669,16.810928 6.5554,1.72204 8.970492,2.356478"
   id="path944-27-3-1"
   sodipodi:nodetypes="ccc" /></svg>
